<?xml version="1.0" encoding="UTF-8" standalone="no"?>
<!-- Created with Inkscape (http://www.inkscape.org/) -->

<svg
   height="150"
   width="1000"
   sodipodi:docname="header-text.svg"
   version="1.1"
   id="svg1"
   role="img" 
   aria-label="Header image"
   inkscape:version="1.3.2 (091e20e, 2023-11-25)"
   xmlns:inkscape="http://www.inkscape.org/namespaces/inkscape"
   xmlns:sodipodi="http://sodipodi.sourceforge.net/DTD/sodipodi-0.dtd"
   xmlns="http://www.w3.org/2000/svg"
   xmlns:svg="http://www.w3.org/2000/svg"
   xmlns:rdf="http://www.w3.org/1999/02/22-rdf-syntax-ns#"
   xmlns:cc="http://creativecommons.org/ns#"
   xmlns:dc="http://purl.org/dc/elements/1.1/">
  <sodipodi:namedview
     id="base"
     pagecolor="#ffffff"
     bordercolor="#000000"
     borderopacity="0.3"
     inkscape:pageopacity="0.0"
     inkscape:pageshadow="2"
     inkscape:zoom="0.92107179"
     inkscape:cx="794.72633"
     inkscape:cy="45.056206"
     inkscape:document-units="px"
     inkscape:current-layer="layer2"
     showgrid="false"
     showguides="true"
     inkscape:window-width="1312"
     inkscape:window-height="666"
     inkscape:window-x="269"
     inkscape:window-y="227"
     inkscape:window-maximized="0"
     showborder="true"
     inkscape:showpageshadow="false"
     inkscape:pagecheckerboard="0"
     inkscape:deskcolor="#d1d1d1">
    <sodipodi:guide
       id="guide_baseline"
       inkscape:label="baseline"
       position="0,193"
       orientation="0,1"
       inkscape:locked="false" />
    <sodipodi:guide
       id="guide_ascender"
       inkscape:label="ascender"
       position="-112.92565,887.30136"
       orientation="0,1"
       inkscape:locked="false" />
    <sodipodi:guide
       id="guide_caps"
       inkscape:label="caps"
       position="378.92829,796.96085"
       orientation="0,1"
       inkscape:locked="false" />
    <sodipodi:guide
       id="guide_xheight"
       inkscape:label="xheight"
       position="536.53307,-87.27138"
       orientation="0,1"
       inkscape:locked="false" />
    <sodipodi:guide
       id="guide_descender"
       inkscape:label="descender"
       position="0,-32"
       orientation="0,1"
       inkscape:locked="false" />
  </sodipodi:namedview>
  <defs
     id="defs4" />
  <metadata
     id="metadata7">
    <rdf:RDF>
      <cc:Work
         rdf:about="">
        <dc:format>image/svg+xml</dc:format>
        <dc:type
           rdf:resource="http://purl.org/dc/dcmitype/StillImage" />
      </cc:Work>
    </rdf:RDF>
  </metadata>
  <g
     id="layer1"
     inkscape:groupmode="layer"
     inkscape:label="Layer 1"
     style="fill:#000000">
    <path
       style="font-size:102.565px;font-family:'Shadows Into Light';-inkscape-font-specification:'Shadows Into Light, Normal';display:inline;fill:#0f172a;stroke-width:1.06839"
       d="m 27.292872,91.219425 q 0,-7.593734 0.10701,-14.90622 0.107011,-7.312484 -0.10701,-14.53122 -0.214023,-7.218734 -0.856088,-14.43747 -0.642065,-7.312484 -1.926197,-14.812469 0,-0.187499 -0.321032,-0.749998 -0.214022,-0.562499 -0.428045,-1.124998 -0.214021,-0.656249 -0.428043,-1.124997 -0.214022,-0.46875 -0.214022,-0.656249 0,-0.468749 0.321033,-1.124998 0.428043,-0.656249 0.963098,-1.218748 0.642066,-0.656248 1.391143,-1.031247 0.749076,-0.375 1.498153,-0.28125 1.28413,0.28125 2.033207,1.406247 0.856087,1.124998 1.284131,2.531245 0.428043,1.312497 0.535055,2.624995 0.214022,1.312497 0.214022,1.874996 3.210327,-1.499997 7.169731,-3.187494 4.066415,-1.781246 8.239841,-3.187493 4.280438,-1.499997 8.453864,-2.437495 4.280436,-1.031248 8.025819,-1.031248 0,0.843749 -0.428043,1.499998 -0.321034,0.656247 -1.391143,1.124997 L 31.359287,39.657031 v 3.656242 q 0.10701,1.031249 0.214021,3.562494 0.214022,2.531244 0.428044,5.437488 0.214022,2.812495 0.321033,5.437489 0.214021,2.531245 0.321033,3.468742 l 22.04425,-10.781227 0.535055,-0.562499 q 0.535055,-0.562499 1.391142,-1.031248 0.856087,-0.468748 1.712175,-0.468748 0.963098,-0.09375 1.819185,0.937497 0,1.687497 -1.926196,3.281244 -1.926197,1.593746 -4.815492,3.187493 -2.889295,1.593747 -6.313644,3.093744 -3.317339,1.499996 -6.206634,2.906243 -2.889295,1.406248 -4.815492,2.812495 -1.926197,1.406247 -1.926197,2.624994 v 18.093713 q 1.391142,0.468749 3.852394,-0.374999 2.568263,-0.937499 5.671578,-2.531245 3.103317,-1.593746 6.420657,-3.656242 3.317338,-2.156247 6.420655,-4.031242 3.210328,-1.874996 5.885601,-3.374993 2.782284,-1.499997 4.60147,-1.781247 1.070108,0 1.926196,0.375 0.856087,0.374999 0.856087,1.499997 0,1.124998 -1.498152,1.781246 -3.745383,1.968745 -8.667885,4.96874 -4.815491,2.906244 -9.845006,5.906237 -5.029513,2.906244 -9.952015,5.343739 -4.815493,2.343745 -8.346853,3.093743 -1.391142,0 -2.247229,-0.187499 -0.856088,-0.187499 -1.926196,-1.124997 z M 78.658113,93.37567 Q 78.337081,90.750676 78.12306,86.250685 77.909037,81.750694 77.695015,76.500705 77.480994,71.156967 77.15996,65.438228 76.945939,59.71949 76.624907,54.563251 76.303873,49.407011 75.768819,45.18827 75.340775,40.969529 74.80572,38.438283 q 0,-1.874995 0.963099,-2.156245 0.963098,-0.374999 2.461251,-0.374999 0.214022,0 0.963098,0 0.749077,0 1.070109,0.09375 0.963099,2.812494 1.177121,7.312484 0.321032,4.406242 0.428043,9.65623 0.214023,5.24999 0.321034,10.874978 0.214021,5.624988 0.749076,10.687478 1.498149,-7.406234 2.461249,-12.281224 1.07011,-4.87499 1.9262,-7.781234 0.9631,-2.999994 1.71217,-4.406241 0.85609,-1.499997 1.81919,-1.968746 1.07011,-0.468749 2.24723,-0.374999 1.28413,0 2.9963,0 1.9262,0 3.10332,1.312497 1.28413,1.312498 1.9262,3.374993 0.74907,2.062496 1.07011,4.499991 0.42804,2.437495 0.74907,4.78124 0.32104,2.249995 0.64207,4.124991 0.42804,1.874997 1.28413,2.624995 2.67527,-6.937486 4.60147,-11.343727 1.9262,-4.406241 3.31734,-6.937486 1.39114,-2.624994 2.46125,-3.749992 1.07011,-1.124998 1.9262,-1.312497 0.85609,-0.281249 1.49815,-0.09375 0.74907,0.1875 1.49815,0.1875 2.8893,0 4.38745,2.624995 1.71218,4.218741 2.35424,8.062483 0.64207,3.749992 0.74908,7.312485 0.10701,3.468742 0,6.656236 0,3.187493 0.21402,6.187487 0.32104,2.999994 1.17712,5.906238 0.9631,2.906243 3.21033,5.718738 -0.85609,1.499997 -1.71218,2.062495 -0.85609,0.46875 -2.35423,0.46875 -1.28414,0 -2.24724,-0.749999 -0.9631,-0.843748 -1.60516,-1.968746 -0.64207,-1.218747 -1.07012,-2.437494 -0.32102,-1.218748 -0.64205,-2.156246 -0.42805,-13.406223 -1.39115,-20.531208 -0.85609,-7.218734 -2.67528,-7.593734 -1.81917,-0.374999 -4.70848,6.281237 -2.78227,6.562486 -6.9557,20.624958 -0.32103,0.468748 -0.9631,0.562499 -0.64207,0.09375 -1.39114,0.09375 -0.64207,0 -1.39114,0 -0.64207,-0.09375 -1.28414,0 -2.67527,-13.781221 -4.49445,-19.781209 -1.71218,-6.093738 -3.53136,-4.687491 -1.81919,1.406247 -4.06642,10.12498 -2.24723,8.624981 -5.77859,24.281199 z m 60.889217,-0.374999 q -0.53505,-7.406235 -0.42804,-15.749968 0.21402,-8.343733 0.53505,-17.999963 0.32104,-9.656229 0.53506,-20.906206 0.32103,-11.343726 0.10701,-24.749949 1.17712,0 2.46126,-0.09375 1.28412,-0.187499 2.24722,-0.09375 1.07011,0.09375 1.71218,0.562499 0.74908,0.468749 0.74908,1.687497 0,3.468743 -0.32104,8.062483 -0.21402,4.499991 -0.64206,9.93748 -0.42805,5.343739 -0.74908,11.531226 -0.21402,6.187487 -0.21402,13.031223 3.74537,-4.312491 6.95571,-7.031235 3.21032,-2.718745 6.09962,-4.312491 2.88929,-1.687497 5.67157,-2.062496 2.78229,-0.468749 5.45756,-0.28125 3.10332,0 5.02951,1.499997 2.03322,1.499997 3.10333,3.749993 1.07011,2.249995 1.49814,5.062489 0.42805,2.718744 0.42805,5.343739 0,1.874996 -0.32104,4.031242 -0.21402,2.062496 -1.17711,4.59374 -0.9631,2.531245 -2.99631,5.249989 -1.92619,2.624995 -5.45756,5.624989 -3.53135,2.999993 -8.98891,6.187487 -5.35055,3.187493 -13.05533,6.562486 -2.56827,0.656249 -4.17344,0.843749 -1.49814,0.09375 -2.46124,0.09375 -0.85609,-0.09375 -1.28414,-0.1875 -0.32103,-0.09375 -0.32103,-0.1875 z m 4.60147,-5.624988 q 0.53506,-0.281249 2.8893,-1.218748 2.35424,-1.031248 5.56457,-2.624995 3.21032,-1.593746 6.9557,-3.843741 3.74539,-2.249996 6.84871,-5.24999 3.21032,-2.999993 5.45755,-6.749985 2.24724,-3.749993 2.67527,-8.249983 0,-1.312498 -0.42803,-2.812494 -0.42805,-1.499997 -1.39115,-2.812495 -0.85609,-1.312497 -2.24723,-2.156245 -1.39115,-0.937499 -3.31734,-0.937499 -3.9594,0 -7.49077,1.874997 -3.42434,1.874996 -6.31363,4.68749 -2.8893,2.812494 -5.13653,6.093737 -2.24723,3.187494 -3.63838,5.906238 z m 42.1623,-38.90617 v -0.749998 q 0,-0.937499 0.74908,-1.312498 0.85609,-0.374999 1.9262,-0.374999 0.85608,0 1.60515,0.1875 0.74908,0.09375 1.17713,1.031248 0.32103,1.406247 0.64206,3.937492 0.32104,2.437494 0.74908,5.437489 0.42805,2.999993 0.85609,6.374986 0.53505,3.281244 0.96309,6.281237 0.53506,2.906244 1.07011,5.249989 0.53506,2.343745 1.17712,3.562493 -0.32103,-8.999981 0.64207,-15.562468 0.9631,-6.656236 3.63837,-10.781227 2.78229,-4.218742 7.49077,-5.812489 4.81549,-1.687496 11.98522,-0.749998 3.31734,0 3.31734,3.093744 0,1.218747 -1.81919,1.687496 -1.81919,0.375 -4.06641,0.562499 -2.24723,0.09375 -4.38745,0.281249 -2.14022,0.1875 -3.10332,0.937499 -3.85239,1.874995 -5.45756,5.812487 -1.49814,3.937492 -2.14021,9.281231 -0.64207,5.343739 -0.9631,11.718726 -0.21402,6.281236 -1.39115,12.937473 0,0.937498 -0.85608,1.406247 -0.85608,0.468749 -2.14022,0.468749 -1.17712,0 -2.35424,-0.468749 -1.07011,-0.468749 -1.71217,-1.406247 z m 73.83754,42.749912 q -0.53505,-2.437495 -0.9631,-5.812489 -0.32103,-3.468742 -0.74908,-6.937485 -0.42804,-3.562493 -1.07011,-6.656236 -0.53505,-3.093744 -1.71218,-5.06249 -5.45754,9.74998 -9.63098,15.374968 -4.17342,5.531239 -7.38375,7.968734 -3.10332,2.343745 -5.24353,2.249995 -2.14022,-0.09375 -3.53137,-1.687496 -1.39113,-1.593747 -2.0332,-4.031242 -0.53506,-2.531245 -0.74908,-4.68749 0,-2.062496 1.07011,-5.812488 1.07011,-3.749993 2.88929,-8.156233 1.81919,-4.49999 4.28044,-9.093731 2.56827,-4.593741 5.45756,-8.343733 2.8893,-3.749993 5.99261,-6.187487 3.10332,-2.437496 6.20664,-2.437496 4.60146,-0.656247 6.74169,1.781247 2.24722,2.343745 0.85608,7.968734 0,6.187486 0.53505,10.593728 0.64207,4.40624 1.28414,8.437482 0.74907,4.031242 1.28413,8.437483 0.64207,4.40624 0.64207,10.593727 0,1.124998 -0.32104,1.968746 -0.21402,0.749999 -2.56826,0.749999 -0.32104,0 -0.85609,-0.468749 -0.42804,-0.468749 -0.42804,-0.749998 z m -5.77859,-41.906164 q -1.17712,-1.499996 -3.21033,-0.281249 -2.0332,1.218747 -4.28044,4.031242 -2.24722,2.812494 -4.60147,6.749985 -2.35423,3.937493 -4.38744,7.968734 -2.03322,4.031242 -3.53136,7.687484 -1.49816,3.562493 -2.03321,5.906238 0,3.374993 1.17712,3.843742 1.17712,0.374999 2.88929,-1.124998 1.71218,-1.499997 3.85239,-4.312491 2.24723,-2.812494 4.28045,-5.999988 2.14021,-3.187492 3.9594,-6.187487 1.92619,-2.999993 2.9963,-4.87499 0.9631,-1.968745 1.49816,-3.656242 0.53505,-1.687496 0.85609,-3.187493 0.42804,-1.593747 0.42804,-3.187494 0.10701,-1.593746 0.10701,-3.374993 z m 15.51658,22.781203 q 0.32104,-3.374993 0.64206,-7.312485 0.32103,-4.031241 0.9631,-7.968733 0.74908,-3.937492 1.81919,-7.499985 1.17712,-3.562492 2.9963,-6.281237 1.9262,-2.812494 4.70848,-4.40624 2.78229,-1.687497 6.74169,-1.593748 2.67528,0 4.06642,1.968747 1.49815,1.968746 2.03321,4.78124 0.64207,2.812494 0.64207,5.812488 0.10701,2.906244 0.10701,4.78124 -2.14023,0 -3.53137,-1.593747 -1.39114,-1.687496 -2.14021,-3.843741 -0.74908,-2.156247 -1.07011,-4.218742 l -0.32104,-2.718744 q -0.10701,0 -0.42804,0 -0.21402,-0.09375 -0.32104,-0.09375 -1.81918,0 -3.42434,1.781247 -1.49816,1.781247 -2.88929,4.593741 -1.28414,2.718744 -2.24724,6.187487 -0.9631,3.374992 -1.60516,6.656236 -0.64207,3.281243 -1.07012,6.093737 -0.32102,2.718745 -0.32102,4.218742 -0.21402,2.437495 0,5.343739 0.21402,2.906244 1.28412,5.437489 1.07012,2.531244 2.99632,4.40624 1.92619,1.781247 5.13652,2.437495 3.9594,0 6.42065,-0.937498 2.46126,-0.937498 3.95941,-2.531245 1.60516,-1.593747 2.46125,-3.562493 0.85609,-1.968746 1.60516,-4.031241 0.85609,-2.156246 1.71218,-4.218742 0.85608,-2.062495 2.46125,-3.843741 1.28413,-0.28125 1.81919,0.09375 0.64206,0.28125 0.85609,0.843749 0.21402,0.562499 0.21402,1.312497 v 1.031248 q 0,3.937491 -1.49816,7.593735 -1.49815,3.656242 -4.38744,6.562486 -2.8893,2.812494 -6.95572,4.59374 -3.9594,1.687497 -9.09592,1.687497 -4.28044,0 -7.16974,-2.343745 -2.78228,-2.437496 -4.38745,-5.812489 -1.49815,-3.374993 -2.14022,-7.031235 -0.64206,-3.749992 -0.64206,-6.374987 z m 44.51655,19.687459 q 0,-6.093737 -0.32104,-12.843723 -0.21402,-6.749986 -0.53505,-13.593722 -0.21403,-6.937486 -0.10701,-13.593721 0.10701,-6.656237 0.9631,-12.468725 0.21402,-0.09375 0.9631,-0.09375 0.85609,-0.09375 1.17711,-0.09375 1.49815,0 2.35424,0.46875 0.9631,0.374999 0.9631,1.781246 0,5.531239 -0.10701,12.093725 0,6.468736 -0.10701,13.218722 0,6.656237 0,13.218723 0,6.562487 0.21402,11.906225 0.10701,1.593747 -0.74907,2.062496 -0.74908,0.562499 -1.9262,0.562499 -1.28413,0 -2.14022,-0.562499 -0.85609,-0.468749 -0.64206,-2.062496 z m -2.35425,-67.12486 q 0,-1.124998 0.85609,-1.499998 0.85609,-0.374999 1.9262,-0.374999 2.14021,0 2.67527,1.218748 0.53505,1.218747 0.53505,2.812494 -0.64206,1.031248 -1.60516,1.499997 -0.96309,0.374999 -2.0332,0.187499 -0.9631,-0.281249 -1.71218,-1.218747 -0.64207,-0.937498 -0.64207,-2.624994 z m 19.69001,67.781109 q -1.17711,-12.656224 -2.14021,-25.312447 -0.85609,-12.749974 -1.9262,-26.437445 0,-2.249997 2.78229,-2.249997 h 0.85609 q 0.32102,0 0.74907,0.75 0.42804,0.749998 0.85609,2.812494 0.53505,1.968745 1.07011,6.093737 0.64206,4.031241 1.49815,10.593728 0.85609,6.562486 1.92619,16.406216 2.24724,-6.374987 3.53137,-12.374975 1.28412,-5.999987 3.31734,-10.874977 2.03321,-4.968739 5.67158,-8.718732 3.74538,-3.749992 10.70109,-5.531239 3.85239,0.562499 6.20664,4.124992 2.35423,3.468743 3.74538,8.624983 1.39114,5.156239 1.9262,11.249976 0.53504,5.999987 0.64205,11.531226 0.10701,5.531238 0.10701,9.93748 0,4.312491 0.21403,6.187487 -0.32104,0.749998 -0.96309,1.312497 -0.64207,0.562498 -1.49816,0.843748 -0.74908,0.1875 -1.49816,0.09375 -0.74907,-0.187499 -1.39114,-1.031248 0,-1.031248 -0.21402,-4.218741 -0.21403,-3.187493 -0.53506,-7.406234 -0.32102,-4.312492 -0.74907,-9.093732 -0.32103,-4.874989 -0.64206,-9.093732 -0.21403,-4.31249 -0.42805,-7.499983 -0.21402,-3.187494 -0.32103,-4.218741 -2.24724,-3.468743 -4.49446,-3.937493 -2.14022,-0.468749 -4.38745,1.218748 -2.14022,1.687496 -4.17343,5.156239 -2.0332,3.468743 -3.85239,7.874983 -1.81918,4.312492 -3.42435,9.093732 -1.60516,4.78124 -2.78229,9.281231 -1.17711,4.40624 -2.0332,8.062483 -0.74908,3.562493 -0.9631,5.531239 -0.32103,0.656249 -1.39114,1.312496 -0.96309,0.5625 -2.14022,0.843749 -1.07011,0.28125 -2.24723,0.1875 -1.07011,-0.1875 -1.60517,-1.124998 z m 55.85973,37.874928 q 9.41696,-0.46876 14.7675,-4.3125 5.45756,-3.84374 8.13283,-9.93748 2.67528,-6.09373 3.21032,-13.96872 0.53506,-7.781232 0.10701,-16.124964 -0.42803,-8.343733 -1.28412,-16.687466 -0.74908,-8.437482 -0.64207,-15.656218 -4.60146,11.812476 -8.66789,19.124961 -4.06641,7.218735 -7.59777,10.968727 -3.42434,3.656243 -6.31365,4.499991 -2.78227,0.749998 -4.9225,-0.281249 -2.14021,-1.124998 -3.53135,-3.468743 -1.28414,-2.437496 -1.81919,-4.96874 0.21402,-4.312492 1.9262,-9.468731 1.81919,-5.249989 4.60147,-10.218729 2.88929,-5.062489 6.63468,-9.37498 3.74538,-4.406241 7.9188,-6.843736 4.17342,-2.531245 8.66788,-2.624994 4.49447,-0.1875 8.66789,2.999993 0.10701,0.09375 0.32104,2.531245 0.32103,2.343745 0.64205,6.281237 0.42805,3.843743 0.85609,8.718732 0.53506,4.781241 0.9631,9.74998 0.42805,4.87499 0.74908,9.37498 0.32103,4.499991 0.64207,7.781235 0.42804,5.343738 -0.53506,11.34373 -0.85609,5.999979 -2.78228,11.624979 -1.9262,5.71873 -4.9225,10.68747 -2.8893,4.96874 -6.74169,8.15623 -3.74538,3.18749 -8.45386,4.03124 -4.60148,0.9375 -9.84502,-1.40624 -0.32103,0 -0.96309,-0.0937 -0.64206,0 -1.07011,-0.28125 -0.32103,-0.28125 -0.10701,-0.75 0.21402,-0.46875 1.39115,-1.40624 z m -2.99632,-51.468649 q 1.07012,2.906243 2.78229,2.999993 1.81918,0 3.8524,-1.968746 2.0332,-2.062496 4.38744,-5.718738 2.46126,-3.656242 4.81549,-7.968734 2.35425,-4.312491 4.60147,-8.812481 2.35425,-4.593741 4.38745,-8.531233 0,-1.031247 -0.53506,-1.874996 -0.53504,-0.937498 -2.35423,-0.562499 -2.99631,0.562499 -5.8856,2.531246 -2.78228,1.968745 -5.24354,4.874989 -2.35425,2.812495 -4.38745,6.281237 -1.9262,3.374994 -3.42434,6.843736 -1.39115,3.374993 -2.24724,6.468737 -0.74908,3.093743 -0.74908,5.437489 z m 95.77476,-25.218699 q -1.07011,0.468749 -2.0332,1.031248 -0.85609,0.46875 -1.71218,0.937498 -0.85609,0.375 -1.71218,0.562499 -0.85609,0.1875 -1.81918,0 -0.64207,0 -1.07011,-0.656248 -0.42805,-0.749999 -0.64207,-1.593747 -0.32103,-0.937499 -0.42804,-1.781247 -0.10701,-0.937497 0,-1.406247 l 10.27305,-5.156239 0.64206,-23.99995 q 0.21402,-1.218748 1.71218,-0.937498 1.49815,0.187499 3.10331,0.562499 0.21403,0 0.64207,0.187499 0.53506,0.09375 0.74908,0.1875 -0.21402,2.531245 -0.53506,5.531238 -0.21402,2.906244 -0.42804,5.906239 -0.21402,2.906243 -0.32104,5.718737 0,2.812495 0.32104,5.06249 l 16.05164,-3.937492 q 0.42804,-0.09375 0.64207,0.562499 0.32103,0.562499 0.53504,1.406247 0.32103,0.843749 0.42805,1.687497 0.10701,0.843748 0.10701,0.843748 l -18.19186,6.749986 q 0,0.843748 0.10701,4.031242 0.21403,3.187493 0.42805,7.593733 0.21402,4.312492 0.42804,9.374981 0.21403,4.96874 0.42805,9.281231 0.21402,4.312491 0.32103,7.593734 0.10701,3.187494 0.10701,4.031242 -0.21402,2.812494 -1.9262,2.812494 -1.60516,0 -3.53135,-1.406247 z m 64.95563,-0.937498 q -3.95941,-1.312497 -7.59778,1.031248 -3.63836,2.343746 -6.95571,6.656236 -3.31733,4.218742 -6.31365,9.65623 -2.9963,5.437489 -5.56456,10.312479 -2.56826,4.87499 -4.70849,8.343733 -2.0332,3.468743 -3.74537,3.843741 -1.28413,0 -2.03321,-0.374998 -0.64206,-0.46875 -0.64206,-2.156246 V 24.094564 q 0,-0.843748 0.74907,-1.031249 0.85608,-0.187499 1.81918,-0.09375 0.9631,0.09375 1.81919,0.468749 0.85609,0.281249 1.07011,0.656249 l 1.39114,52.78114 q 1.17712,-1.687497 2.14022,-4.68749 1.07011,-3.093743 2.46126,-6.562486 1.39113,-3.562493 3.21032,-7.031235 1.9262,-3.562494 4.70848,-6.374988 2.78228,-2.812494 6.74169,-4.312491 4.06642,-1.593746 9.52397,-1.124998 3.63837,0 5.88561,2.062496 2.24722,1.968746 2.35423,5.249989 l 1.07011,37.406173 q 0,0.375 -0.21402,1.124998 -0.10701,0.656249 -0.85609,1.124997 -0.64206,0.562499 -1.92619,0.656249 -1.17712,0.187499 -3.10332,-0.468749 z m 15.83764,20.718708 q -0.53505,0.09375 -1.60516,0.281249 -1.07011,0.1875 -2.24724,0.09375 -1.17712,-0.09375 -2.0332,-0.562498 -0.9631,-0.468749 -0.9631,-1.593747 0,-0.656249 0.32104,-0.937498 0.32103,-0.281249 1.07011,-0.843748 2.35423,-1.687497 3.9594,-4.312491 1.71217,-2.718744 3.10331,-5.718739 1.39115,-3.093743 2.8893,-6.093737 1.60516,-3.093743 3.63837,-5.531238 2.0332,-2.437495 5.02951,-3.937492 2.99631,-1.499997 7.38375,-1.406247 1.81919,0 4.06643,0.749998 2.24722,0.749999 4.17342,2.062496 1.92619,1.218748 3.21032,2.999994 1.28414,1.781246 1.28414,3.937492 0.53505,0.749998 -1.07011,2.156245 -1.49816,1.406247 -4.17343,3.093743 -2.67528,1.593748 -6.09962,3.374993 -3.31734,1.687498 -6.42066,3.187494 -3.10331,1.499997 -5.45756,2.624995 -2.35423,1.124997 -3.10331,1.687496 -0.53506,0.937498 -0.85609,2.156246 -0.32103,1.218747 -0.53506,2.343745 -0.10701,1.031248 -0.21402,1.968745 0,0.843749 0,1.312498 0,1.781247 -0.21402,3.937492 -0.10701,2.156245 0.21402,4.124991 0.42805,1.874997 1.81919,3.187494 1.39115,1.218747 4.70848,1.218747 3.53136,0 6.63468,-1.499997 3.10331,-1.593746 5.77859,-3.843741 2.67527,-2.249996 4.81549,-4.87499 2.24723,-2.624995 3.95941,-4.87499 1.81919,-2.343746 3.21032,-3.843743 1.39114,-1.499996 2.35424,-1.499996 1.07012,0 2.24723,0.374998 1.28413,0.28125 1.28413,1.499998 0,1.687496 -1.60515,4.031241 -1.49816,2.343746 -4.06643,4.968741 -2.46124,2.624993 -5.77859,5.249988 -3.21032,2.531245 -6.52766,4.593741 -3.31734,1.968746 -6.52767,3.281242 -3.21032,1.218748 -5.67158,1.218748 -4.81549,0 -7.27673,-2.062496 -2.46126,-2.062495 -3.53137,-5.156238 -0.9631,-3.093745 -1.07011,-6.562487 0,-3.562493 -0.10701,-6.562487 z m 19.69001,-25.312448 q -1.81919,0 -3.8524,1.593747 -2.0332,1.499997 -3.85239,3.749992 -1.71218,2.156245 -2.88929,4.499991 -1.07011,2.249995 -1.07011,3.749992 1.60517,0 4.60147,-1.031249 3.10331,-1.124997 6.09962,-2.718743 2.99631,-1.593747 5.24354,-3.374993 2.24722,-1.781247 2.24722,-3.374993 0,-0.843748 -0.74907,-1.406247 -0.74907,-0.562499 -1.81918,-0.937499 -0.9631,-0.374999 -2.03322,-0.562498 -1.07011,-0.1875 -1.92619,-0.1875 z m 79.93717,-24.4687 q 0,-0.749998 0.53505,-1.031247 0.64207,-0.375 1.39115,-0.375 0.85608,-0.09375 1.71217,0 0.9631,0.09375 1.60516,0.09375 0.53506,1.124998 0.85609,4.499991 0.42805,3.281243 0.74908,8.062483 0.42805,4.687491 0.53505,10.406228 0.21402,5.718739 0.32103,11.624977 0.21402,5.812487 0.21402,11.437476 0.10701,5.624989 0.10701,10.312478 0.10701,4.593741 0.10701,7.874985 v 4.218741 q -0.10701,1.874996 -0.9631,2.249995 -0.74906,0.28125 -3.63836,-0.46875 -0.32104,-0.09375 -0.53506,-2.812494 -0.21402,-2.718744 -0.32103,-7.124985 -0.10701,-4.49999 -0.21403,-10.218729 -0.10701,-5.812487 -0.21402,-11.906225 -0.10701,-6.093737 -0.32102,-12.187474 -0.10701,-6.093738 -0.32103,-11.062477 -0.21403,-5.06249 -0.64207,-8.624983 -0.32103,-3.656242 -0.9631,-4.96874 z m 18.29885,69.749856 q -0.32104,-2.624994 -0.53506,-7.124985 -0.21402,-4.499991 -0.42805,-9.74998 -0.21402,-5.343738 -0.53505,-11.062477 -0.21401,-5.718738 -0.53505,-10.874977 -0.32103,-5.15624 -0.85609,-9.374981 -0.42804,-4.218741 -0.9631,-6.749987 0,-1.874995 0.9631,-2.156245 0.9631,-0.374999 2.46125,-0.374999 0.21402,0 0.9631,0 0.74908,0 1.07011,0.09375 0.9631,2.812494 1.17712,7.312484 0.32104,4.406242 0.42805,9.65623 0.21402,5.24999 0.32102,10.874978 0.21402,5.624988 0.74908,10.687478 1.49816,-7.406234 2.46126,-12.281224 1.07011,-4.87499 1.9262,-7.781234 0.96309,-2.999994 1.71217,-4.406241 0.85608,-1.499997 1.81918,-1.968746 1.07012,-0.468749 2.24723,-0.374999 1.28413,0 2.99631,0 1.92619,0 3.10331,1.312497 1.28414,1.312498 1.9262,3.374993 0.74908,2.062496 1.07011,4.499991 0.42804,2.437495 0.74907,4.78124 0.32104,2.249995 0.64207,4.124991 0.42804,1.874997 1.28413,2.624995 2.67528,-6.937486 4.60147,-11.343727 1.9262,-4.406241 3.31735,-6.937486 1.39113,-2.624994 2.46124,-3.749992 1.07011,-1.124998 1.9262,-1.312497 0.85608,-0.281249 1.49815,-0.09375 0.74908,0.1875 1.49816,0.1875 2.88929,0 4.38744,2.624995 1.71218,4.218741 2.35425,8.062483 0.64206,3.749992 0.74907,7.312485 0.10702,3.468742 0,6.656236 0,3.187493 0.21403,6.187487 0.32102,2.999994 1.17711,5.906238 0.9631,2.906243 3.21033,5.718738 -0.85609,1.499997 -1.71217,2.062495 -0.85609,0.46875 -2.35425,0.46875 -1.28412,0 -2.24722,-0.749999 -0.9631,-0.843748 -1.60517,-1.968746 -0.64207,-1.218747 -1.07011,-2.437494 -0.32104,-1.218748 -0.64206,-2.156246 -0.42804,-13.406223 -1.39114,-20.531208 -0.85609,-7.218734 -2.67528,-7.593734 -1.81918,-0.374999 -4.70848,6.281237 -2.78228,6.562486 -6.95571,20.624958 -0.32103,0.468748 -0.9631,0.562499 -0.64206,0.09375 -1.39114,0.09375 -0.64207,0 -1.39115,0 -0.64205,-0.09375 -1.28412,0 -2.67528,-13.781221 -4.49447,-19.781209 -1.71216,-6.093738 -3.53135,-4.687491 -1.81918,1.406247 -4.06642,10.12498 -2.24723,8.624981 -5.77859,24.281199 z m 59.49809,24.93745 q 1.17711,-9.84373 1.28413,-18.749969 0.21402,-8.812475 -0.10702,-17.437458 -0.21402,-8.624982 -0.74906,-17.437464 -0.53506,-8.812481 -0.64207,-18.656211 0.32103,-1.312497 0.74908,-1.968745 0.53504,-0.75 2.67527,-0.375 2.24723,0.468749 2.67526,2.249995 0.42805,1.687497 0.21403,3.843743 -0.21403,2.156245 -0.64206,4.31249 -0.42804,2.156246 0,3.468743 3.42435,-2.156245 7.27674,-4.49999 3.85239,-2.343746 8.02582,-4.124991 4.17343,-1.874997 8.66788,-2.718745 4.49446,-0.937499 8.98892,-0.09375 5.56457,1.124998 7.70479,3.374993 2.24722,2.156246 1.71217,5.06249 -0.42805,2.812494 -2.9963,6.281237 -2.56827,3.374993 -6.31365,6.843736 -3.74538,3.468743 -8.34685,6.843735 -4.60147,3.374993 -8.98892,6.281238 -4.38745,2.812494 -8.23984,4.968739 -3.74538,2.156246 -5.99261,3.187493 -0.10702,1.124998 -0.32104,3.562492 -0.10701,2.343746 -0.32103,5.34374 -0.10701,2.999989 -0.32103,6.281239 -0.10702,3.28124 -0.32104,6.28124 -0.107,2.99999 -0.32102,5.34373 -0.10701,2.34375 -0.10701,3.46874 -0.21402,0.0937 -0.74908,0.1875 -0.53506,0.0938 -1.28413,0.0938 -0.74908,0.0937 -1.39115,0.0937 -0.64207,0.0937 -0.85609,0 -0.32103,0 -0.64205,-0.5625 -0.32104,-0.46876 -0.32104,-0.75 z m 5.99261,-51.374895 q -0.32104,1.312497 -0.21403,3.281243 0.21403,1.874996 0.42805,4.031242 0.32103,2.062495 0.64206,4.031242 0.32104,1.968746 0.42805,3.374993 4.06641,-2.718745 9.41696,-5.531239 5.45756,-2.812494 10.48707,-6.093738 5.13652,-3.281243 9.09593,-7.312485 3.95941,-4.031241 5.24353,-9.093731 0.42805,-1.968745 -0.42803,-2.624994 -0.74908,-0.749999 -2.67528,-1.031248 -4.06641,-0.749998 -9.30995,0.562499 -5.24353,1.218748 -10.16604,3.656242 -4.81549,2.437496 -8.45386,5.812489 -3.63838,3.374992 -4.49446,6.937485 z m 46.44269,13.874972 q -0.74908,-4.312492 -0.74908,-8.343733 0,-4.124992 0.53506,-8.343734 0.64207,-4.218741 1.71218,-8.718731 1.17711,-4.593741 2.67526,-9.84373 0,-1.031248 0.64207,-1.874996 0.64207,-0.937498 1.71218,-1.499997 1.0701,-0.656248 2.24722,-1.031248 1.17713,-0.374999 2.24724,-0.374999 2.35423,0 4.28043,1.312498 1.9262,1.312497 3.42435,3.187492 1.60517,1.874997 2.67528,4.031242 1.17712,2.062496 1.92619,3.562493 0.85609,3.281243 1.17712,7.499984 0.42805,4.124992 0.10701,8.437483 -0.32103,4.312491 -1.49815,8.531233 -1.17712,4.124991 -3.31734,7.593734 -2.14021,3.468743 -5.56457,5.812488 -3.31733,2.343745 -7.9188,2.906244 -2.46126,0 -3.74539,-1.406248 -1.28413,-1.499996 -1.92619,-3.562492 -0.53506,-2.156245 -0.64207,-4.312491 0,-2.156245 0,-3.562492 z m 5.45756,-0.28125 q 0,0.937498 0,1.781246 0.10701,0.843748 0.21402,1.687496 0.21402,0.749999 0.42805,1.687497 0.32103,0.843749 0.74907,1.968746 h 0.64206 q 2.56827,0 4.38746,-1.499997 1.81918,-1.499997 3.10331,-3.843742 1.28413,-2.437495 2.14022,-5.343739 0.85608,-2.999993 1.28413,-5.812487 0.53505,-2.906245 0.64206,-5.34374 0.21402,-2.531245 0.21402,-4.031242 v -1.874996 q 0,-1.218747 -0.10701,-2.718744 -0.10701,-1.593747 -0.42804,-3.187493 -0.21402,-1.687497 -0.74908,-2.999994 -0.53504,-1.406247 -1.39113,-2.249996 -0.85609,-0.843748 -2.24724,-0.843748 -2.35423,-0.656248 -4.06641,0.28125 -1.60517,0.937498 -2.67528,3.187493 -0.96309,2.156245 -1.49814,5.343739 -0.53506,3.187493 -0.64207,7.031236 -0.10701,3.843741 -0.10701,8.156233 0.10701,4.312491 0.10701,8.624982 z m 32.31731,11.718725 q 0,0.09375 2.24722,-1.124998 2.35424,-1.218746 5.45756,-3.187492 3.21032,-2.062496 6.52767,-4.406242 3.31733,-2.437494 5.45755,-4.59374 2.14022,-2.156245 2.24723,-3.656242 0.21402,-1.593747 -2.88929,-2.062496 -3.85239,-0.468749 -6.52767,0.09375 -2.56826,0.562499 -4.70848,1.312497 -2.14022,0.749999 -4.06641,1.406247 -1.81919,0.656249 -4.06642,0.468749 -4.70848,0 -6.52767,-2.531244 -1.71218,-2.624995 -1.71218,-7.031236 0,-4.406241 2.24724,-8.343732 2.24722,-4.031242 5.77859,-6.937486 3.53136,-2.906245 8.13283,-4.593741 4.60146,-1.781247 9.41696,-1.781247 1.9262,0 3.31734,0.28125 1.39114,0.281249 1.39114,2.156246 0,1.312497 -1.28413,2.531244 -1.28413,1.124998 -2.8893,1.124998 -0.10701,0 -0.53505,-0.09375 -0.42805,-0.187499 -0.85609,-0.468749 -0.42805,-0.281249 -0.85608,-0.374999 -0.42805,-0.1875 -0.53506,-0.1875 -3.42435,-0.843748 -6.63468,0.843749 -3.21032,1.687496 -5.77859,4.59374 -2.46125,2.812494 -3.9594,6.187487 -1.49816,3.281244 -1.49816,5.906238 0,1.031248 0.42805,1.687496 0.53505,0.562499 1.28413,0.843749 0.85609,0.28125 1.81918,0.374999 1.07011,0 2.14022,0 2.14023,0 4.28044,-0.562499 2.24723,-0.562499 4.28043,-1.312497 2.14023,-0.749999 4.28045,-1.312498 2.24722,-0.562498 4.60147,-0.562498 1.0701,0 2.35423,0.562498 1.28414,0.46875 2.35425,1.499998 1.07011,0.937498 1.81918,2.249995 0.74907,1.218748 0.85609,2.718745 0.64206,1.312497 -0.42805,3.468742 -0.9631,2.156246 -2.9963,4.59374 -2.03321,2.437496 -4.9225,4.96874 -2.8893,2.437495 -5.77859,4.499991 -2.88929,1.968746 -5.67158,3.187494 -2.78228,1.312496 -4.70848,1.218747 -2.14023,0 -2.56826,-1.124997 -0.32103,-1.124998 -0.32103,-2.531246 z m 34.56452,-38.62492 q -1.07011,0.468749 -2.03321,1.031248 -0.85609,0.46875 -1.71217,0.937498 -0.85609,0.375 -1.71218,0.562499 -0.85609,0.1875 -1.81919,0 -0.64206,0 -1.07011,-0.656248 -0.42803,-0.749999 -0.64205,-1.593747 -0.32104,-0.937499 -0.42805,-1.781247 -0.10701,-0.937497 0,-1.406247 l 10.27305,-5.156239 0.64207,-23.99995 q 0.21401,-1.218748 1.71217,-0.937498 1.49815,0.187499 3.10332,0.562499 0.21401,0 0.64206,0.187499 0.53505,0.09375 0.74907,0.1875 -0.21402,2.531245 -0.53505,5.531238 -0.21402,2.906244 -0.42805,5.906239 -0.21402,2.906243 -0.32102,5.718737 0,2.812495 0.32102,5.06249 l 16.05164,-3.937492 q 0.42805,-0.09375 0.64207,0.562499 0.32103,0.562499 0.53506,1.406247 0.32103,0.843749 0.42804,1.687497 0.10701,0.843748 0.10701,0.843748 l -18.19185,6.749986 q 0,0.843748 0.10701,4.031242 0.21401,3.187493 0.42803,7.593733 0.21403,4.312492 0.42805,9.374981 0.21402,4.96874 0.42804,9.281231 0.21403,4.312491 0.32104,7.593734 0.10701,3.187494 0.10701,4.031242 -0.21402,2.812494 -1.92619,2.812494 -1.60517,0 -3.53137,-1.406247 z m 29.64203,19.78121 q -0.53506,0.09375 -1.60517,0.281249 -1.07011,0.1875 -2.24723,0.09375 -1.17712,-0.09375 -2.03321,-0.562498 -0.9631,-0.468749 -0.9631,-1.593747 0,-0.656249 0.32104,-0.937498 0.32103,-0.281249 1.07011,-0.843748 2.35424,-1.687497 3.9594,-4.312491 1.71218,-2.718744 3.10332,-5.718739 1.39114,-3.093743 2.88929,-6.093737 1.60517,-3.093743 3.63837,-5.531238 2.03321,-2.437495 5.02951,-3.937492 2.99632,-1.499997 7.38376,-1.406247 1.81919,0 4.06642,0.749998 2.24723,0.749999 4.17342,2.062496 1.9262,1.218748 3.21033,2.999994 1.28413,1.781246 1.28413,3.937492 0.53505,0.749998 -1.0701,2.156245 -1.49816,1.406247 -4.17344,3.093743 -2.67527,1.593748 -6.09961,3.374993 -3.31735,1.687498 -6.42066,3.187494 -3.10331,1.499997 -5.45756,2.624995 -2.35424,1.124997 -3.10331,1.687496 -0.53506,0.937498 -0.85609,2.156246 -0.32103,1.218747 -0.53506,2.343745 -0.10701,1.031248 -0.21402,1.968745 0,0.843749 0,1.312498 0,1.781247 -0.21402,3.937492 -0.10701,2.156245 0.21402,4.124991 0.42805,1.874997 1.81919,3.187494 1.39114,1.218747 4.70848,1.218747 3.53136,0 6.63467,-1.499997 3.10332,-1.593746 5.77859,-3.843741 2.67528,-2.249996 4.81549,-4.87499 2.24724,-2.624995 3.95941,-4.87499 1.81919,-2.343746 3.21033,-3.843743 1.39114,-1.499996 2.35423,-1.499996 1.07012,0 2.24724,0.374998 1.28413,0.28125 1.28413,1.499998 0,1.687496 -1.60516,4.031241 -1.49816,2.343746 -4.06642,4.968741 -2.46125,2.624993 -5.77859,5.249988 -3.21032,2.531245 -6.52767,4.593741 -3.31733,1.968746 -6.52767,3.281242 -3.21032,1.218748 -5.67157,1.218748 -4.81549,0 -7.27674,-2.062496 -2.46125,-2.062495 -3.53136,-5.156238 -0.9631,-3.093745 -1.07011,-6.562487 0,-3.562493 -0.10701,-6.562486 z m 19.69,-25.312448 q -1.81919,0 -3.85239,1.593747 -2.03321,1.499997 -3.85239,3.749992 -1.71218,2.156245 -2.8893,4.499991 -1.07011,2.249995 -1.07011,3.749992 1.60517,0 4.60147,-1.031249 3.10332,-1.124997 6.09962,-2.718743 2.99632,-1.593747 5.24354,-3.374993 2.24723,-1.781247 2.24723,-3.374993 0,-0.843748 -0.74907,-1.406247 -0.74908,-0.562499 -1.81919,-0.937499 -0.96309,-0.374999 -2.03321,-0.562498 -1.07011,-0.1875 -1.9262,-0.1875 z m 27.82285,0.374999 v -0.749998 q 0,-0.937499 0.74907,-1.312498 0.85609,-0.374999 1.9262,-0.374999 0.85609,0 1.60517,0.1875 0.74908,0.09375 1.17712,1.031248 0.32102,1.406247 0.64206,3.937492 0.32103,2.437494 0.74908,5.437489 0.42804,2.999993 0.85608,6.374986 0.53506,3.281244 0.9631,6.281237 0.53506,2.906244 1.07012,5.249989 0.53505,2.343745 1.17711,3.562493 -0.32102,-8.999981 0.64207,-15.562468 0.9631,-6.656236 3.63837,-10.781227 2.78228,-4.218742 7.49076,-5.812489 4.81549,-1.687496 11.98523,-0.749998 3.31734,0 3.31734,3.093744 0,1.218747 -1.81918,1.687496 -1.81919,0.375 -4.06643,0.562499 -2.24722,0.09375 -4.38744,0.281249 -2.14022,0.1875 -3.10332,0.937499 -3.85239,1.874995 -5.45755,5.812487 -1.49816,3.937492 -2.14023,9.281231 -0.64206,5.343739 -0.9631,11.718726 -0.21401,6.281236 -1.39113,12.937473 0,0.937498 -0.85609,1.406247 -0.85609,0.468749 -2.14022,0.468749 -1.17712,0 -2.35424,-0.468749 -1.07011,-0.468749 -1.71218,-1.406247 z"
       id="text3"
       inkscape:label="title" />
  </g>
  <g
     inkscape:groupmode="layer"
     id="layer2"
     inkscape:label="Layer 2">
    <rect
       style="fill:#0f172a"
       id="rect3"
       width="382.93909"
       height="2.5"
       x="21.599302"
       y="103.39542" />
    <rect
       style="fill:#0f172a;stroke-width:0.840841"
       id="rect3-4-1"
       width="208.39993"
       height="2.5"
       x="752.38928"
       y="103.37778" />
    <rect
       style="fill:#0f172a;stroke-width:1.0264"
       id="rect3-4"
       width="310.53244"
       height="2.5"
       x="425.33511"
       y="102.69898" />
  </g>
</svg>
