<?xml version="1.0" encoding="UTF-8" standalone="no"?>
<!-- Created with Inkscape (http://www.inkscape.org/) -->

<svg
   height="80"
   width="1000"
   sodipodi:docname="subheader.svg"
   version="1.1"
   id="svg1"
   role="img" 
   aria-label="Flavour text"
   inkscape:version="1.3.2 (091e20e, 2023-11-25)"
   xmlns:inkscape="http://www.inkscape.org/namespaces/inkscape"
   xmlns:sodipodi="http://sodipodi.sourceforge.net/DTD/sodipodi-0.dtd"
   xmlns="http://www.w3.org/2000/svg"
   xmlns:svg="http://www.w3.org/2000/svg"
   xmlns:rdf="http://www.w3.org/1999/02/22-rdf-syntax-ns#"
   xmlns:cc="http://creativecommons.org/ns#"
   xmlns:dc="http://purl.org/dc/elements/1.1/">
  <sodipodi:namedview
     id="base"
     pagecolor="#ffffff"
     bordercolor="#000000"
     borderopacity="0.3"
     inkscape:pageopacity="0.0"
     inkscape:pageshadow="2"
     inkscape:zoom="1.1747754"
     inkscape:cx="673.32018"
     inkscape:cy="52.350431"
     inkscape:document-units="px"
     inkscape:current-layer="layer1"
     showgrid="false"
     showguides="true"
     inkscape:window-width="1312"
     inkscape:window-height="666"
     inkscape:window-x="269"
     inkscape:window-y="199"
     inkscape:window-maximized="0"
     showborder="true"
     inkscape:showpageshadow="false"
     inkscape:pagecheckerboard="0"
     inkscape:deskcolor="#d1d1d1">
    <sodipodi:guide
       id="guide_baseline"
       inkscape:label="baseline"
       position="0,123"
       orientation="0,1"
       inkscape:locked="false" />
    <sodipodi:guide
       id="guide_ascender"
       inkscape:label="ascender"
       position="-112.92565,817.30136"
       orientation="0,1"
       inkscape:locked="false" />
    <sodipodi:guide
       id="guide_caps"
       inkscape:label="caps"
       position="378.92829,726.96085"
       orientation="0,1"
       inkscape:locked="false" />
    <sodipodi:guide
       id="guide_xheight"
       inkscape:label="xheight"
       position="536.53307,-157.27138"
       orientation="0,1"
       inkscape:locked="false" />
    <sodipodi:guide
       id="guide_descender"
       inkscape:label="descender"
       position="0,-102"
       orientation="0,1"
       inkscape:locked="false" />
  </sodipodi:namedview>
  <defs
     id="defs4" />
  <metadata
     id="metadata7">
    <rdf:RDF>
      <cc:Work
         rdf:about="">
        <dc:format>image/svg+xml</dc:format>
        <dc:type
           rdf:resource="http://purl.org/dc/dcmitype/StillImage" />
      </cc:Work>
    </rdf:RDF>
  </metadata>
  <g
     id="layer1"
     inkscape:groupmode="layer"
     inkscape:label="subheading-text"
     style="fill:#000000"
     transform="translate(4.0564102,-118.08894)">
    <path
       style="font-size:64px;font-family:Zeyada;-inkscape-font-specification:'Zeyada, Normal';fill:#64748b;stroke-width:1.00996"
       d="m 30.139408,152.75483 q -0.93805,1.14684 -2.188783,2.42113 -1.188196,1.27428 -2.626539,2.35742 -1.375806,1.08314 -2.939222,1.8477 -1.500879,0.70087 -3.126832,0.70087 -3.314442,0 -3.314442,-3.24943 0,-1.33799 1.063123,-3.50428 1.125659,-2.22998 2.876685,-4.65112 1.751026,-2.42114 3.877272,-4.65113 2.126246,-2.2937 4.252492,-3.75912 2.126246,-1.52914 3.877272,-1.91143 1.813562,-0.38228 2.939222,1.08314 0,1.72029 -0.250147,3.44056 -0.250146,1.72028 -0.500293,3.44057 -0.250146,1.65656 -0.500293,3.31312 -0.250146,1.65657 -0.250146,3.37684 0,0.3823 0.06254,1.21057 0.125074,0.76458 0.312683,1.59286 0.250147,0.76457 0.625367,1.40171 0.37522,0.57342 1.000586,0.57342 1.50088,0 2.438929,-0.38228 1.000586,-0.38228 1.68849,-0.892 0.750439,-0.57342 1.250732,-1.27428 0.56283,-0.70086 1.12566,-1.40171 0.625366,-0.70085 1.375806,-1.33799 0.75044,-0.63714 1.938636,-1.01943 0,0 0,0.19114 0,0.19115 0,0.31857 0,1.59285 -0.93805,3.18571 -0.938049,1.52914 -2.376392,2.73971 -1.438343,1.21056 -3.251905,1.97513 -1.751026,0.70085 -3.439516,0.70085 -1.438343,0 -2.313856,-0.82827 -0.875513,-0.82829 -1.438342,-1.97515 -0.500293,-1.14685 -0.75044,-2.48484 -0.250147,-1.40172 -0.500293,-2.54856 z m 1.125659,-8.34655 q 0.625367,-2.10257 0.437757,-2.86713 -0.125073,-0.76458 -0.875513,-0.57343 -0.75044,0.12742 -1.938636,1.08314 -1.188196,0.892 -2.564002,2.22999 -1.375806,1.27428 -2.751613,2.86713 -1.375806,1.59285 -2.564002,3.05828 -1.188196,1.40171 -1.938636,2.54857 -0.75044,1.14684 -0.93805,1.65656 -0.375219,1.46542 -0.125073,2.22999 0.312683,0.76457 0.875513,1.08314 0.625367,0.25486 1.31327,0.0637 0.750439,-0.19114 1.250733,-0.57342 1.063122,-0.95571 2.689075,-2.54856 1.625953,-1.65658 3.126832,-3.50428 1.563416,-1.84771 2.689076,-3.6317 1.125659,-1.84771 1.313269,-3.12199 z m 18.698456,25.23077 q 0,-1.14685 0.06254,-2.03885 0.06254,-0.892 0.56283,-2.03884 0.18761,3.44055 0.875513,6.37139 0.625366,2.99457 1.876099,5.54314 1.250733,2.54856 3.126832,4.77855 1.813563,2.29371 4.502639,4.39627 1.313269,1.01942 3.001758,1.65656 1.625953,0.63714 3.251906,0.63714 1.938636,0 3.314442,-1.27428 1.438343,-1.21056 2.376392,-3.24942 1.000586,-1.97513 1.563416,-4.39626 0.625367,-2.42114 0.93805,-4.90599 0.37522,-2.42113 0.500293,-4.5237 0.18761,-2.10256 0.312683,-3.37684 0,-0.31857 0.18761,-1.72029 0.18761,-1.4017 0.37522,-2.99455 0.18761,-1.59286 0.37522,-2.93085 0.18761,-1.40171 0.18761,-1.784 0,-0.19114 0,-1.01942 0,-0.892 0,-1.91143 0.06254,-1.08313 0.06254,-2.10255 0,-1.01943 0,-1.59286 0,-0.38228 0,-1.08314 0,-0.70085 -0.06254,-1.40171 0,-0.76456 0,-1.33799 0,-0.57343 0,-0.70085 l -0.56283,-1.08315 q -0.75044,0.38228 -1.625953,1.14686 -0.875513,0.70085 -1.751026,1.46542 -0.875513,0.76457 -1.751026,1.338 -0.875513,0.57342 -1.625952,0.57342 -0.500293,0 -1.000587,-0.12743 -0.437756,-0.12742 -0.437756,-0.82828 0,-0.95571 1.000586,-1.97514 1.000586,-1.01942 2.376393,-1.84771 1.375806,-0.89199 2.814148,-1.46542 1.438343,-0.57342 2.25132,-0.57342 0.125073,0 0.375219,0 0.312684,0 0.625367,0.0637 0.312683,0 0.56283,0 0.250146,0 0.37522,0 0.437756,0.31857 0.625366,0.76457 0.250147,0.446 0.437756,0.89199 0,0.31857 0,1.14686 0.06254,0.82829 0.06254,1.784 0.06254,0.89199 0.06254,1.78399 0,0.82828 0,1.14685 0,0.50971 0,1.46542 0,0.892 -0.06254,1.84771 0,0.95571 -0.06254,1.65657 0,0.70085 0,0.82828 -0.06254,0.57343 -0.250146,2.16628 -0.18761,1.52913 -0.500293,3.6317 -0.312683,2.10256 -0.687903,4.5237 -0.312684,2.48485 -0.687903,4.71485 -0.312684,2.2937 -0.625367,4.20512 -0.312683,1.91143 -0.500293,2.99456 -0.312683,1.84771 -0.812976,3.88656 -0.437757,2.10257 -1.375806,3.82284 -0.875513,1.784 -2.376393,2.93085 -1.438343,1.14686 -3.689662,1.14686 -4.127418,0 -7.504397,-1.784 -3.439515,-1.72028 -5.878444,-4.65112 -2.438929,-2.93085 -3.814735,-6.75369 -1.375807,-3.82285 -1.375807,-7.83684 z M 76.47906,134.40518 q 0,-0.70087 0.250146,-1.08315 0.250147,-0.38228 1.000587,-0.38228 0.562829,0 0.750439,0.44599 0.250147,0.44601 0.250147,1.01944 0,0.63714 -0.250147,1.01942 -0.18761,0.38228 -0.750439,0.38228 -0.75044,0 -1.000587,-0.38228 -0.250146,-0.38228 -0.250146,-1.01942 z m 5.690834,23.95648 q 0,-0.19114 0,-0.63714 0,-0.50971 -0.06254,-1.01942 0,-0.57343 0,-1.01943 0,-0.50971 0,-0.76457 0,-1.78399 0.250146,-3.82284 0.250147,-2.03885 0.75044,-3.95028 0.500293,-1.97513 1.313269,-3.75912 0.875513,-1.84771 2.126246,-3.1857 1.31327,-1.40172 3.001759,-2.23 1.688489,-0.82828 3.877272,-0.82828 1.438343,0 2.188782,0.89199 0.75044,0.82828 1.000587,2.10256 0.312683,1.27429 0.312683,2.676 0.06254,1.40171 0.06254,2.48484 0,2.48485 -0.500294,5.22456 -0.500293,2.67599 -1.625952,4.90598 -1.12566,2.23 -3.126832,3.69542 -1.938636,1.46542 -4.877859,1.46542 -0.875513,0 -1.500879,-0.0637 -0.625366,-0.0637 -1.12566,-0.31857 -0.500293,-0.31857 -1.000586,-0.70085 -0.500293,-0.44601 -1.063122,-1.14686 z m 2.188783,-1.14685 q 0.56283,0.57342 1.313269,0.57342 0.75044,0 1.438343,0 2.376392,0 3.877272,-1.21056 1.500879,-1.27428 2.313856,-3.12199 0.875513,-1.84771 1.188196,-4.01399 0.37522,-2.23 0.37522,-4.14142 0,-0.89199 0,-1.91141 0.06254,-1.08315 -0.18761,-1.97514 -0.18761,-0.95572 -0.75044,-1.52913 -0.56283,-0.63715 -1.688489,-0.63715 0,1.01943 -0.250147,1.52913 -0.250146,0.50972 -0.687903,0.70087 -0.37522,0.19113 -0.93805,0.25485 -0.500293,0 -1.125659,0.19114 -0.56283,0.19115 -1.12566,0.57343 -0.562829,0.38228 -1.000586,1.33799 -1.000586,2.86714 -1.938636,5.54313 -0.875513,2.61227 -0.875513,5.54312 0,0.19114 0,0.50971 0,0.25486 0,0.63714 0.06254,0.38229 0.06254,0.70086 0,0.25486 0,0.446 z M 103.6825,134.40518 q -1.25073,0 -1.75103,0.5097 -0.50029,0.50972 -0.81297,1.08314 -0.25015,0.57343 -0.5003,1.08314 -0.25014,0.50971 -0.938047,0.50971 -0.750439,0 -1.188195,-0.25485 -0.500293,-0.31857 -0.500293,-1.14686 0.06254,-0.82827 0.625366,-1.59285 0.56283,-0.76456 1.375812,-1.33799 0.875507,-0.63714 1.813557,-0.95571 0.93805,-0.31857 1.8761,-0.19115 0.87551,0 1.62595,0.12743 0.75044,0.12743 1.31327,0.50971 0.56283,0.38229 0.87551,1.08315 0.31269,0.63714 0.31269,1.72027 v 21.08936 l 1.06312,-1.08314 q 0.0625,-0.0637 0.56283,-1.01943 0.56283,-1.01942 1.25073,-2.35741 0.68791,-1.338 1.37581,-2.73971 0.75044,-1.40171 1.1882,-2.29371 1.43834,-2.93084 2.31385,-5.67054 0.87551,-2.80342 1.50088,-5.92542 0.12507,-0.5097 0.56283,-0.57343 0.50029,-0.12742 0.81298,-0.12742 0.0625,0 0.37522,0.0637 0.31268,0 0.43775,0 0,0.50972 0,1.52914 0.0625,1.01943 0.12508,2.29371 0.0625,1.27428 0.12507,2.67599 0.0625,1.338 0.12507,2.61228 0.0625,1.27427 0.12508,2.29371 0.0625,0.95571 0.0625,1.46541 0,0.38229 0.0625,1.40172 0.12507,0.95571 0.37522,2.03885 0.31268,1.01942 0.81298,1.84771 0.50029,0.82827 1.43834,0.82827 0.87551,-0.5097 1.75102,-1.21056 0.87552,-0.70086 1.75103,-1.40171 0.93805,-0.76457 1.81356,-1.338 0.93805,-0.63714 1.93864,-0.95571 0.50029,0.31857 0.37522,0.95571 -0.12507,0.63715 -0.6879,1.46543 -0.56283,0.82828 -1.43835,1.72028 -0.87551,0.82829 -1.93863,1.59285 -1.06313,0.70085 -2.18879,1.14685 -1.06312,0.38229 -2.00117,0.25486 -1.81356,0 -2.81415,-1.14685 -0.93805,-1.14686 -1.3758,-2.73971 -0.37522,-1.65656 -0.43776,-3.44056 -0.0625,-1.78399 -0.0625,-3.05827 -0.6879,0 -1.3758,1.14684 -0.62537,1.08315 -1.31327,2.73971 -0.6879,1.65657 -1.43834,3.56799 -0.75044,1.91142 -1.62596,3.56799 -0.87551,1.59285 -1.8761,2.73971 -0.93805,1.08313 -2.06371,1.08313 -0.81297,0 -1.31327,-0.44599 -0.50029,-0.44601 -0.75043,-1.14686 -0.25015,-0.70085 -0.31269,-1.46542 -0.0625,-0.76457 -0.0625,-1.46543 v -20.00621 q 0,-0.19115 -0.12508,-0.446 -0.12507,-0.31858 -0.31268,-0.57342 -0.18761,-0.25486 -0.43776,-0.44601 -0.25014,-0.19113 -0.50029,-0.19113 z m 25.82763,23.95648 q 0.62537,-2.54856 0.87552,-4.58741 0.31268,-2.10257 0.37522,-4.0777 0.12507,-1.97514 0.0625,-4.14142 0,-2.16627 0,-4.90598 -1.00058,0 -1.50088,0.12742 -0.43775,0.12744 -0.62536,0.31857 -0.18761,0.12744 -0.25015,0.31858 -0.0625,0.19114 -0.25015,0.38229 -0.12507,0.12742 -0.56283,0.25485 -0.43775,0.12743 -1.3758,0.12743 -0.56283,0 -0.81298,-0.446 -0.25015,-0.446 -0.25015,-1.01943 0,-0.5097 0.68791,-1.08313 0.62536,-0.57343 1.50088,-1.14686 0.93805,-0.57343 1.8761,-0.95571 1.00058,-0.38228 1.68849,-0.38228 0.25014,0 0.6879,0.25485 0.50029,0.19114 0.93805,0.57343 0.43775,0.31857 0.6879,0.70086 0.31268,0.38228 0.31268,0.76456 v 8.85626 q 0.62537,-0.95571 2.00118,-2.61228 1.3758,-1.65657 3.06429,-3.24941 1.68849,-1.65658 3.43952,-2.86714 1.75102,-1.21057 3.12683,-1.21057 1.8761,0 2.62654,1.27429 0.75044,1.21057 0.75044,3.05827 -0.75044,0 -1.1882,-0.25485 -0.43775,-0.25486 -0.81297,-0.57343 -0.31269,-0.31857 -0.68791,-0.50972 -0.37522,-0.25486 -1.00058,-0.25486 -2.00118,0.3823 -3.7522,2.03886 -1.75103,1.65657 -3.25191,3.88656 -1.43834,2.22999 -2.62654,4.71484 -1.12566,2.48484 -2.00117,4.5237 -0.87551,2.03885 -1.43834,3.31313 -0.50029,1.27428 -0.62537,1.01942 -0.62536,0 -1.18819,-0.57343 -0.5003,-0.63714 -0.5003,-1.46541 z m 25.26481,-2.29371 q 0.12507,-0.50971 0.37522,-1.65656 0.25014,-1.21057 0.50029,-2.67599 0.31268,-1.46543 0.56283,-3.12199 0.31268,-1.65656 0.56283,-3.12199 0.31268,-1.46543 0.50029,-2.67599 0.18761,-1.21057 0.25015,-1.784 0.0625,-0.25486 0,-0.76456 -0.0625,-0.50972 -0.12507,-1.14686 -0.0625,-0.63714 -0.12508,-1.14685 -0.0625,-0.50971 -0.0625,-0.76457 -0.18761,0 -0.62537,-0.12743 -0.43776,-0.12743 -0.93805,-0.19114 -0.43776,-0.12743 -0.81298,-0.19114 -0.37522,-0.12743 -0.56283,-0.12743 -1.50088,0.57343 -2.25132,1.46542 -0.6879,0.82828 -1.31327,1.65657 -0.56283,0.82829 -1.3758,1.46543 -0.81298,0.57342 -2.37639,0.57342 -0.56283,0 -0.81298,-0.446 -0.25015,-0.44599 -0.25015,-1.01942 v -0.25486 q 1.37581,-1.59285 2.62654,-2.73971 1.1882,-1.14685 2.564,-1.91141 1.37581,-0.82829 3.00176,-1.21057 1.62596,-0.38229 3.7522,-0.38229 0.93805,0 1.37581,0.38229 0.50029,0.31857 0.75044,0.892 0.25014,0.5097 0.25014,1.21056 0.0625,0.70085 0.0625,1.52914 0,1.72027 -0.37522,3.44056 -0.31268,1.65656 -0.75044,3.37684 -0.37522,1.65656 -0.75044,3.37685 -0.37522,1.65656 -0.37522,3.44056 v 0.25485 q 0.18761,-0.50971 0.81298,-1.65656 0.62536,-1.21057 1.31327,-2.54857 0.6879,-1.33799 1.31327,-2.48485 0.6879,-1.21056 0.93805,-1.65656 0.0625,-0.0637 0.43775,-0.50971 0.37522,-0.50972 0.87552,-1.14686 0.56283,-0.63714 1.06312,-1.21057 0.56283,-0.63714 0.93805,-1.01942 0.37522,-0.50971 0.87551,-1.08314 0.56283,-0.57342 1.12566,-1.08314 0.62537,-0.50971 1.25073,-0.82828 0.68791,-0.38228 1.37581,-0.38228 0.56283,0 0.81298,0.44599 0.31268,0.446 0.43775,1.08314 0.12508,0.63714 0.12508,1.338 0,0.63714 0,1.08314 0,1.91142 -0.43776,3.82284 -0.43776,1.91143 -0.93805,3.82285 -0.50029,1.84771 -1.00059,3.75913 -0.43775,1.91141 -0.43775,3.82284 0,0.82828 0.25014,1.40171 0.25015,0.57343 1.12566,0.57343 1.12566,0 2.06371,-0.63714 0.93805,-0.63714 1.75103,-1.338 0.87551,-0.76457 1.68849,-1.40171 0.87551,-0.63714 1.93863,-0.63714 v 1.21057 q 0,0.0637 -0.31268,0.38228 -0.31268,0.31857 -0.75044,0.76457 -0.43776,0.446 -0.93805,0.892 -0.43776,0.446 -0.75044,0.76457 -0.50029,0.446 -1.12566,0.95571 -0.62536,0.50971 -1.31327,0.95571 -0.62536,0.38229 -1.3758,0.70086 -0.75044,0.25486 -1.43835,0.25486 -0.93805,0 -1.56341,-0.50972 -0.56283,-0.57343 -0.87552,-1.33799 -0.31268,-0.82829 -0.43775,-1.72029 -0.12508,-0.89199 -0.12508,-1.59285 0,-1.91143 0.31269,-3.75913 0.37522,-1.91142 0.75044,-3.69542 0.37522,-1.84771 0.6879,-3.69541 0.31268,-1.84771 0.31268,-3.75913 h -0.37522 q -0.0625,0 -0.43775,0.38228 -0.37522,0.38228 -0.93805,0.892 -0.5003,0.50972 -1.00059,1.08314 -0.50029,0.57343 -0.87551,0.95571 -0.31268,0.38229 -0.6879,0.95571 -0.37522,0.50972 -0.75044,1.14686 -0.37522,0.63714 -0.75044,1.27428 -0.31269,0.57343 -0.56283,1.08313 -0.18761,0.44601 -0.62537,1.338 -0.43776,0.892 -1.00059,2.03885 -0.50029,1.14685 -1.12566,2.42113 -0.56283,1.27428 -1.12566,2.42114 -0.50029,1.14685 -0.93805,2.03885 -0.43775,0.892 -0.62536,1.33799 -0.0625,0.25486 -0.50029,0.70087 -0.43776,0.38228 -0.56283,0.44599 -0.12508,0.0637 -0.12508,0.0637 h -0.18761 -0.12507 q -0.0625,0 -0.12507,-0.0637 -0.12508,-0.0637 -0.37522,-0.25486 -0.18761,-0.19113 -0.18761,-0.25486 z m 21.70021,-3.50427 q -0.43776,0.25486 -0.6879,0.12742 -0.25015,-0.12742 -0.37522,-0.38228 -0.0625,-0.25486 -0.12508,-0.57342 0,-0.38229 0,-0.50971 0,-1.27429 0.31269,-1.52914 0.31268,-0.31857 0.81297,-0.38229 0.5003,-0.12742 1.06313,-0.31857 0.56283,-0.19114 1.06312,-1.21057 0.75044,-1.59285 1.31327,-3.31312 0.62537,-1.784 1.50088,-3.31313 0.87551,-1.52914 2.18878,-2.48485 1.37581,-0.95572 3.7522,-0.95572 0.37522,0 0.81298,0.0637 0.50029,0.0637 0.87551,0.25485 0.43776,0.12743 0.6879,0.50971 0.31269,0.31857 0.31269,0.892 0,1.33799 -0.68791,2.42114 -0.62536,1.01942 -1.62595,1.91142 -0.93805,0.82828 -2.06371,1.59285 -1.12566,0.76457 -2.06371,1.46542 -0.93805,0.70086 -1.62595,1.46543 -0.62537,0.76457 -0.62537,1.65656 v 6.11655 q 0,0.70086 0.5003,1.14686 0.56283,0.38228 1.25073,0.63714 0.6879,0.25485 1.43834,0.38229 0.75044,0.12742 1.12566,0.12742 1.50088,0 3.00176,-0.50971 1.50088,-0.57343 2.87669,-1.40171 1.43834,-0.82828 2.68907,-1.78399 1.25073,-1.01943 2.37639,-1.91142 0.37522,-0.31857 0.62537,-0.63714 0.31268,-0.38229 0.56283,-0.70086 0.31268,-0.31857 0.62537,-0.50971 0.37522,-0.25486 0.93805,-0.38229 0,0.0637 0,0.25486 0,0.19114 0,0.31857 0,0.50971 -0.12508,0.89199 -0.0625,0.38228 -0.43775,0.76458 -1.37581,1.59285 -2.93923,2.99455 -1.56341,1.40171 -3.31444,2.48486 -1.75102,1.08313 -3.68966,1.72027 -1.93864,0.63714 -4.12742,0.63714 -2.18878,0 -3.37698,-0.63714 -1.18819,-0.63714 -1.8761,-1.84771 -0.62536,-1.21056 -0.87551,-2.86713 -0.25015,-1.65657 -0.56283,-3.56799 z m 8.06723,-9.87568 q 0,-0.12743 -0.25015,0.0637 -0.18761,0.12742 -0.50029,0.38228 -0.25015,0.25486 -0.37522,0.50971 -0.12508,0.19114 0,0.19114 0.31268,0.0637 0.75044,-0.38228 0.43775,-0.446 0.37522,-0.76457 z m 9.25542,46.76613 q -0.37522,-2.42114 -0.62537,-5.09713 -0.25014,-2.67599 -0.43775,-6.18026 0,-0.57343 0.0625,-1.91142 0,-1.27429 0.12508,-2.93085 0.12507,-1.59285 0.37522,-3.37685 0.25014,-1.72028 0.62536,-3.31313 0.31269,-1.52914 0.81298,-2.73971 0.50029,-1.14685 1.25073,-1.65656 v 0.50971 q 0,1.91143 -0.25014,3.75914 -0.31269,1.8477 -0.56283,3.69541 -0.31269,1.91142 -0.56283,3.82284 -0.31269,1.91143 -0.31269,3.82285 0,0.76456 0.12508,2.16628 0.0625,1.46542 0.25014,3.1857 0.18761,1.72028 0.56283,3.50428 0.37522,1.8477 1.00059,3.31313 0.62537,1.46541 1.50088,2.35741 0.87551,0.95571 2.06371,0.95571 1.62595,0 3.2519,-1.08313 1.68849,-1.08315 3.18937,-2.86714 1.56342,-1.72028 2.87669,-3.95026 1.31327,-2.16629 2.43893,-4.39628 1.12566,-2.22999 1.8761,-4.26884 0.75044,-1.97514 1.12566,-3.44056 0.37522,-2.10257 0.75044,-4.45999 0.37522,-2.2937 0.6879,-4.77855 0.37522,-2.42114 0.56283,-4.84227 0.25015,-2.42114 0.25015,-4.84227 0,-0.0637 0,-0.38228 0,-0.31857 -0.0625,-0.63714 0,-0.3823 0,-0.70087 0,-0.31857 0,-0.44599 -0.87551,0.95571 -1.8761,2.16628 -0.93805,1.14685 -2.06371,2.16628 -1.12566,1.01942 -2.43893,1.72028 -1.25073,0.70085 -2.75161,0.70085 -1.1882,0 -2.06371,-0.76456 -0.81298,-0.76458 -1.37581,-1.84772 -0.50029,-1.14685 -0.81297,-2.42113 -0.25015,-1.27429 -0.25015,-2.29371 -0.0625,-0.57342 -0.12507,-2.03885 -0.0625,-1.52914 -0.18761,-3.1857 -0.0625,-1.72028 -0.18761,-3.1857 -0.0625,-1.52914 -0.0625,-2.16629 l -0.56283,-0.57341 q -0.43776,0.25484 -1.12566,0.76456 -0.6879,0.50972 -1.50088,0.95571 -0.75044,0.446 -1.50088,0.82829 -0.75044,0.31857 -1.31327,0.31857 -0.75044,0 -1.18819,-0.50972 -0.5003,-0.57343 -0.5003,-1.21057 0,-0.31857 0.62537,-0.892 0.56283,-0.57341 1.50088,-1.14684 0.87551,-0.63714 2.00117,-1.27429 1.1882,-0.63714 2.25132,-1.14685 1.06312,-0.50971 1.93864,-0.82828 0.87551,-0.38229 1.25073,-0.38229 0.25015,0 0.81298,0.0637 0.56283,0.0637 0.56283,0.57342 v 15.03652 q 0,0.38229 0.12507,1.14686 0.12507,0.70085 0.37522,1.46542 0.25015,0.76457 0.6879,1.338 0.43776,0.50971 1.00059,0.50971 0.31268,0 0.81298,-0.19114 0.50029,-0.19115 0.93804,-0.446 0.5003,-0.25486 0.87552,-0.50971 0.37522,-0.31857 0.62536,-0.57343 2.12625,-1.91142 3.87728,-4.26884 1.81356,-2.35743 2.68907,-5.16085 0.0625,-0.19113 0.18761,-0.82828 0.18761,-0.70085 0.31268,-1.46542 0.18761,-0.82828 0.37522,-1.52913 0.18761,-0.76458 0.18761,-1.14686 0.0625,-0.446 0.0625,-1.01942 0.0625,-0.57343 0.18761,-1.08315 0.12507,-0.57342 0.43776,-0.95571 0.31268,-0.38228 1.00058,-0.38228 0.93805,0 1.00059,0.57343 0.12507,0.57342 0.12507,1.33799 0,0.82829 -0.12507,1.65656 -0.12507,0.82829 -0.31268,1.65658 -0.12508,0.76456 -0.18761,1.59285 -0.0625,0.76456 0.0625,1.59284 -0.6879,11.97825 -2.93922,21.40793 -2.18878,9.42969 -5.25308,15.86481 -3.00176,6.49883 -6.37873,9.81196 -3.31445,3.31314 -6.25367,2.99457 -1.06312,0 -2.12624,-0.50972 -1.00059,-0.44599 -1.8761,-1.27428 -0.87552,-0.82828 -1.50088,-1.84771 -0.68791,-0.95571 -1.00059,-1.97513 z m 56.59566,-14.14453 q 0,-2.16628 0.18761,-4.45998 0.18761,-2.29371 0.43776,-4.65112 0.31268,-2.29372 0.6879,-4.58742 0.43776,-2.29371 0.87551,-4.39627 l -3.81473,3.82285 q -0.0625,0.0637 -0.0625,0.0637 -0.0625,0.0637 -0.18761,0.0637 -0.12507,0 -0.18761,-0.0637 0,0 -0.12507,-0.0637 -0.0625,0 -0.31268,-0.25486 -0.18761,-0.25486 -0.25015,-0.25486 -0.0625,0 -0.37522,0.0637 -0.31268,0.0637 -0.6879,0.12744 -0.37522,0.12742 -0.68791,0.19113 -0.37522,0.12744 -0.37522,0.12744 h -0.31268 q -0.37522,0 -0.50029,-0.19115 -0.18761,-0.12742 -0.25015,-0.38228 -0.0625,-0.25486 -0.0625,-0.57343 0,-0.31857 0,-0.57343 0,-0.63714 0.12508,-1.21057 0.0625,-0.57342 1.00058,-0.89199 0,0 0.37522,0 0.31269,0 0.68791,0 0.37522,0 0.6879,0 0.31268,0 0.37522,0 0.81298,-0.19114 2.06371,-1.21057 1.31327,-1.08314 2.50146,-2.48485 1.1882,-1.46542 1.93864,-2.99456 0.81298,-1.59285 0.62537,-2.73971 0.18761,-0.76456 0.6879,-2.61227 0.56283,-1.91142 1.12566,-4.07771 0.62537,-2.16627 1.1882,-4.01398 0.56283,-1.91142 0.81297,-2.67598 0.12508,-0.31857 0.43776,-1.21057 0.37522,-0.95572 0.87551,-1.91143 0.5003,-1.01942 1.1882,-1.78399 0.75044,-0.76457 1.62595,-0.76457 0.56283,0 0.81298,0.31857 0.31268,0.31857 0.43775,0.76457 0.12508,0.446 0.12508,0.95571 0,0.50971 0,0.82828 0,0.25486 0,0.892 0,0.63714 -0.0625,0.82828 -0.25015,0.70085 -0.87551,2.54856 -0.56283,1.84771 -1.25074,3.88656 -0.6879,1.97514 -1.31327,3.82285 -0.62536,1.78399 -0.93804,2.54856 -0.0625,0.19115 -0.31269,0.63714 -0.18761,0.44599 -0.43775,1.01942 -0.25015,0.50972 -0.56283,1.01943 -0.25015,0.446 -0.31269,0.63714 h 0.25015 0.31268 q 0.25015,-0.0637 1.06313,-0.38228 0.87551,-0.38229 1.87609,-0.76457 1.06313,-0.38228 1.93864,-0.70085 0.87551,-0.31857 1.12566,-0.44601 0.0625,0 0.50029,0 0.5003,-0.0637 0.75044,-0.0637 2.25132,0 3.87727,0.95571 1.68849,0.892 2.68908,2.42114 1.06312,1.46542 1.56342,3.44055 0.50029,1.97514 0.50029,4.07771 0,0.82828 -0.12507,2.35741 -0.12508,1.46543 -0.43776,3.31314 -0.25015,1.91143 -0.62537,3.88656 -0.37522,2.03885 -0.87551,3.82284 -0.50029,1.78399 -1.12566,3.18571 -0.62537,1.46542 -1.25073,2.16627 l -6.50381,6.62627 q -0.56283,0.57343 -1.37581,0.892 -0.81298,0.38228 -1.68849,0.5097 -0.81297,0.19115 -1.68849,0.25486 -0.87551,0.0637 -1.56341,0.0637 -2.12625,0 -3.43952,-0.82827 -1.31327,-0.76458 -2.06371,-2.10257 -0.75044,-1.338 -1.06312,-3.12198 -0.25015,-1.72029 -0.25015,-3.69543 z m 2.12625,-0.50971 q 0,1.59285 0.0625,3.05828 0.0625,1.46542 0.5003,2.54856 0.50029,1.08314 1.50088,1.72028 1.06312,0.70085 2.93922,0.70085 2.62654,0 4.75278,-1.21056 2.12625,-1.14686 3.7522,-3.12199 1.62596,-1.97514 2.81415,-4.5237 1.1882,-2.48485 1.93864,-5.16084 0.81297,-2.676 1.12566,-5.28827 0.37522,-2.61228 0.37522,-4.71484 0,-1.65657 -0.18761,-3.31313 -0.12508,-1.72028 -0.75044,-3.05827 -0.62537,-1.338 -1.81357,-2.16629 -1.12565,-0.89199 -3.06429,-0.89199 -3.25191,0 -5.56576,1.21057 -2.25132,1.21056 -3.81474,3.1857 -1.56341,1.97513 -2.43893,4.58741 -0.87551,2.61228 -1.3758,5.4157 -0.43776,2.80342 -0.62537,5.67055 -0.12507,2.86714 -0.12507,5.35198 z m 7.69201,-38.22844 q -0.12508,0 -0.37522,0.57343 -0.25015,0.50971 -0.5003,1.33799 -0.18761,0.76457 -0.43775,1.72029 -0.25015,0.89198 -0.37522,1.72027 -0.12508,0.76457 -0.18761,1.27428 0,0.50972 0.12507,0.50972 0.18761,0 0.37522,-0.50972 0.18761,-0.50971 0.43776,-1.27428 0.25014,-0.82829 0.43775,-1.72027 0.25015,-0.95572 0.37522,-1.72029 0.18761,-0.82828 0.18761,-1.33799 0.0625,-0.57343 -0.0625,-0.57343 z m 18.01055,21.79021 q 0.62536,-2.54856 0.87551,-4.58741 0.31268,-2.10257 0.37522,-4.0777 0.12507,-1.97514 0.0625,-4.14142 0,-2.16627 0,-4.90598 -1.00059,0 -1.50088,0.12742 -0.43776,0.12744 -0.62537,0.31857 -0.18761,0.12744 -0.25014,0.31858 -0.0625,0.19114 -0.25015,0.38229 -0.12507,0.12742 -0.56283,0.25485 -0.43776,0.12743 -1.37581,0.12743 -0.56283,0 -0.81297,-0.446 -0.25015,-0.446 -0.25015,-1.01943 0,-0.5097 0.6879,-1.08313 0.62537,-0.57343 1.50088,-1.14686 0.93805,-0.57343 1.8761,-0.95571 1.00059,-0.38228 1.68849,-0.38228 0.25015,0 0.6879,0.25485 0.5003,0.19114 0.93805,0.57343 0.43776,0.31857 0.68791,0.70086 0.31268,0.38228 0.31268,0.76456 v 8.85626 q 0.62537,-0.95571 2.00117,-2.61228 1.37581,-1.65657 3.0643,-3.24941 1.68849,-1.65658 3.43951,-2.86714 1.75103,-1.21057 3.12684,-1.21057 1.87609,0 2.62653,1.27429 0.75044,1.21057 0.75044,3.05827 -0.75044,0 -1.18819,-0.25485 -0.43776,-0.25486 -0.81298,-0.57343 -0.31268,-0.31857 -0.6879,-0.50972 -0.37522,-0.25486 -1.00059,-0.25486 -2.00117,0.3823 -3.7522,2.03886 -1.75102,1.65657 -3.2519,3.88656 -1.43834,2.22999 -2.62654,4.71484 -1.12566,2.48484 -2.00117,4.5237 -0.87552,2.03885 -1.43835,3.31313 -0.50029,1.27428 -0.62536,1.01942 -0.62537,0 -1.1882,-0.57343 -0.50029,-0.63714 -0.50029,-1.46541 z m 20.88724,0 q 0,-0.19114 0,-0.63714 0,-0.50971 -0.0625,-1.01942 0,-0.57343 0,-1.01943 0,-0.50971 0,-0.76457 0,-1.78399 0.25015,-3.82284 0.25014,-2.03885 0.75044,-3.95028 0.50029,-1.97513 1.31327,-3.75912 0.87551,-1.84771 2.12624,-3.1857 1.31327,-1.40172 3.00176,-2.23 1.68849,-0.82828 3.87727,-0.82828 1.43835,0 2.18878,0.89199 0.75044,0.82828 1.00059,2.10256 0.31268,1.27429 0.31268,2.676 0.0625,1.40171 0.0625,2.48484 0,2.48485 -0.50029,5.22456 -0.5003,2.67599 -1.62595,4.90598 -1.12566,2.23 -3.12684,3.69542 -1.93863,1.46542 -4.87786,1.46542 -0.87551,0 -1.50087,-0.0637 -0.62537,-0.0637 -1.12566,-0.31857 -0.5003,-0.31857 -1.00059,-0.70085 -0.50029,-0.44601 -1.06312,-1.14686 z m 2.18878,-1.14685 q 0.56283,0.57342 1.31327,0.57342 0.75044,0 1.43834,0 2.37639,0 3.87727,-1.21056 1.50088,-1.27428 2.31386,-3.12199 0.87551,-1.84771 1.1882,-4.01399 0.37522,-2.23 0.37522,-4.14142 0,-0.89199 0,-1.91141 0.0625,-1.08315 -0.18761,-1.97514 -0.18761,-0.95572 -0.75044,-1.52913 -0.56283,-0.63715 -1.68849,-0.63715 0,1.01943 -0.25015,1.52913 -0.25015,0.50972 -0.6879,0.70087 -0.37522,0.19113 -0.93805,0.25485 -0.5003,0 -1.12566,0.19114 -0.56283,0.19115 -1.12566,0.57343 -0.56283,0.38228 -1.00059,1.33799 -1.00058,2.86714 -1.93863,5.54313 -0.87552,2.61227 -0.87552,5.54312 0,0.19114 0,0.50971 0,0.25486 0,0.63714 0.0625,0.38229 0.0625,0.70086 0,0.25486 0,0.446 z m 20.69963,-13.88967 -0.56283,-2.29371 -1.12566,0.63714 -6.50381,6.62627 q -0.0625,0.0637 -0.43776,-0.12743 -0.43776,-0.25485 -0.62537,-0.38229 -0.12507,-0.12742 -0.31268,-0.31857 -0.25015,-0.25486 -0.25015,-0.31857 v -0.25486 q 0,-0.38228 0.56283,-1.21056 0.5003,-0.82828 1.37581,-1.84771 0.87551,-1.01942 1.93864,-2.10256 1.12566,-1.14685 2.18878,-1.97514 1.12566,-0.892 2.12625,-1.46542 1.00058,-0.57343 1.68848,-0.57343 1.1882,0 1.75103,1.14685 0.62537,1.08315 0.81298,2.61229 0.25014,1.46542 0.18761,2.99456 -0.0625,1.46541 -0.0625,2.16628 0.18761,-0.31857 0.81298,-1.08315 0.62536,-0.82828 1.31327,-1.72028 0.6879,-0.95571 1.31327,-1.72027 0.62536,-0.76458 0.87551,-1.08315 0.18761,-0.19113 0.81297,-0.892 0.68791,-0.76456 1.43835,-1.52913 0.81297,-0.82828 1.68849,-1.40171 0.87551,-0.63714 1.50088,-0.63714 1.12566,0 1.62595,0.70085 0.50029,0.63714 0.62537,1.59285 0.18761,0.95571 0.12507,2.03886 -0.0625,1.01942 -0.0625,1.72027 0,2.42114 -0.31268,4.77856 -0.31268,2.35742 -0.31268,4.84227 v 0.50972 q 1.31327,-1.52914 2.25131,-3.37685 1.00059,-1.84771 2.00118,-3.6317 1.00058,-1.84771 2.12624,-3.50428 1.1882,-1.65656 2.87669,-2.80342 0.12507,-0.0637 0.37522,-0.0637 0.31268,-0.0637 0.43775,-0.0637 0.68791,0 1.00059,0.44599 0.37522,0.38228 0.43776,1.01942 0.12507,0.57343 0.0625,1.21057 -0.0625,0.63714 -0.0625,1.08314 0,2.73971 -0.31269,5.4157 -0.31268,2.61227 -0.31268,5.35198 0,1.46543 0.62537,1.91142 0.6879,0.446 2.12624,0.446 0.68791,0 1.1882,-0.19114 0.56283,-0.25486 1.06312,-0.50971 0.5003,-0.31857 1.00059,-0.50971 0.56283,-0.25486 1.1882,-0.25486 0,0.95571 -0.5003,1.78399 -0.50029,0.76457 -1.25073,1.338 -0.75044,0.50971 -1.68849,0.82828 -0.93805,0.25486 -1.75103,0.25486 -0.6879,0 -1.43834,-0.19115 -0.6879,-0.19113 -1.31327,-0.57343 -0.56283,-0.44599 -1.00058,-1.08313 -0.37522,-0.63714 -0.37522,-1.52914 v -12.2331 q -0.68791,0.50971 -1.56342,1.84771 -0.81298,1.33799 -1.75103,3.05828 -0.87551,1.72027 -1.81356,3.6317 -0.87551,1.91142 -1.75103,3.44056 -0.87551,1.52913 -1.68848,2.61228 -0.81298,1.01942 -1.50088,1.01942 -0.68791,0 -1.00059,-0.63714 -0.31268,-0.63714 -0.43776,-1.40171 -0.0625,-0.82829 -0.0625,-1.52914 0,-0.70085 0,-0.95571 0,-1.52914 0.18761,-3.05828 0.18761,-1.52913 0.43775,-3.05827 0.25015,-1.59285 0.43776,-3.12199 0.18761,-1.52914 0.18761,-3.05828 0,-0.19114 0,-0.57342 0,-0.38228 -0.12507,-0.70085 -0.0625,-0.3823 -0.25015,-0.63714 -0.18761,-0.31857 -0.50029,-0.31857 -0.0625,0 -0.12508,0.0637 0,0 -0.0625,0 0,0.0637 -0.12508,0.0637 -0.0625,0 -0.25014,0.19115 -0.18761,0.19113 -0.25015,0.31857 -0.6879,0.89199 -1.81356,2.2937 -1.12566,1.40171 -2.18878,2.7397 -1.06313,1.33799 -1.81357,2.29371 -0.75044,0.95571 -0.81297,0.95571 -0.18761,0.38229 -0.68791,1.84771 -0.43775,1.46543 -1.00058,3.1857 -0.5003,1.65657 -0.93805,3.18571 -0.43776,1.46542 -0.62537,1.84771 -0.31268,1.01942 -0.81298,1.4017 -0.50029,0.38228 -1.50088,0.38228 0,-2.16627 0.18761,-4.26884 0.18761,-2.10256 0.43776,-4.20512 0.25015,-2.16628 0.43776,-4.26884 0.18761,-2.16628 0.18761,-4.39628 z m 59.2222,12.74281 q 0.12507,-0.50971 0.37522,-1.65656 0.25014,-1.21057 0.50029,-2.67599 0.31268,-1.46543 0.56283,-3.12199 0.31268,-1.65656 0.56283,-3.12199 0.31268,-1.46543 0.50029,-2.67599 0.18761,-1.21057 0.25015,-1.784 0.0625,-0.25486 0,-0.76456 -0.0625,-0.50972 -0.12507,-1.14686 -0.0625,-0.63714 -0.12508,-1.14685 -0.0625,-0.50971 -0.0625,-0.76457 -0.18761,0 -0.62537,-0.12743 -0.43776,-0.12743 -0.93805,-0.19114 -0.43776,-0.12743 -0.81298,-0.19114 -0.37522,-0.12743 -0.56283,-0.12743 -1.50087,0.57343 -2.25131,1.46542 -0.68791,0.82828 -1.31327,1.65657 -0.56283,0.82829 -1.37581,1.46543 -0.81298,0.57342 -2.37639,0.57342 -0.56283,0 -0.81298,-0.446 -0.25015,-0.44599 -0.25015,-1.01942 v -0.25486 q 1.37581,-1.59285 2.62654,-2.73971 1.1882,-1.14685 2.56401,-1.91141 1.3758,-0.82829 3.00176,-1.21057 1.62595,-0.38229 3.75219,-0.38229 0.93805,0 1.37581,0.38229 0.50029,0.31857 0.75044,0.892 0.25015,0.5097 0.25015,1.21056 0.0625,0.70085 0.0625,1.52914 0,1.72027 -0.37522,3.44056 -0.31268,1.65656 -0.75044,3.37684 -0.37522,1.65656 -0.75044,3.37685 -0.37522,1.65656 -0.37522,3.44056 v 0.25485 q 0.18761,-0.50971 0.81298,-1.65656 0.62537,-1.21057 1.31327,-2.54857 0.6879,-1.33799 1.31327,-2.48485 0.6879,-1.21056 0.93805,-1.65656 0.0625,-0.0637 0.43775,-0.50971 0.37522,-0.50972 0.87552,-1.14686 0.56283,-0.63714 1.06312,-1.21057 0.56283,-0.63714 0.93805,-1.01942 0.37522,-0.50971 0.87551,-1.08314 0.56283,-0.57342 1.12566,-1.08314 0.62537,-0.50971 1.25074,-0.82828 0.6879,-0.38228 1.3758,-0.38228 0.56283,0 0.81298,0.44599 0.31268,0.446 0.43775,1.08314 0.12508,0.63714 0.12508,1.338 0,0.63714 0,1.08314 0,1.91142 -0.43776,3.82284 -0.43775,1.91143 -0.93805,3.82285 -0.50029,1.84771 -1.00058,3.75913 -0.43776,1.91141 -0.43776,3.82284 0,0.82828 0.25015,1.40171 0.25014,0.57343 1.12566,0.57343 1.12565,0 2.0637,-0.63714 0.93805,-0.63714 1.75103,-1.338 0.87551,-0.76457 1.68849,-1.40171 0.87551,-0.63714 1.93864,-0.63714 v 1.21057 q 0,0.0637 -0.31269,0.38228 -0.31268,0.31857 -0.75044,0.76457 -0.43775,0.446 -0.93805,0.892 -0.43775,0.446 -0.75044,0.76457 -0.50029,0.446 -1.12566,0.95571 -0.62536,0.50971 -1.31327,0.95571 -0.62536,0.38229 -1.3758,0.70086 -0.75044,0.25486 -1.43834,0.25486 -0.93805,0 -1.56342,-0.50972 -0.56283,-0.57343 -0.87551,-1.33799 -0.31269,-0.82829 -0.43776,-1.72029 -0.12507,-0.89199 -0.12507,-1.59285 0,-1.91143 0.31268,-3.75913 0.37522,-1.91142 0.75044,-3.69542 0.37522,-1.84771 0.6879,-3.69541 0.31269,-1.84771 0.31269,-3.75913 h -0.37522 q -0.0625,0 -0.43776,0.38228 -0.37522,0.38228 -0.93805,0.892 -0.50029,0.50972 -1.00059,1.08314 -0.50029,0.57343 -0.87551,0.95571 -0.31268,0.38229 -0.6879,0.95571 -0.37522,0.50972 -0.75044,1.14686 -0.37522,0.63714 -0.75044,1.27428 -0.31268,0.57343 -0.56283,1.08313 -0.18761,0.44601 -0.62537,1.338 -0.43775,0.892 -1.00058,2.03885 -0.5003,1.14685 -1.12566,2.42113 -0.56283,1.27428 -1.12566,2.42114 -0.5003,1.14685 -0.93805,2.03885 -0.43776,0.892 -0.62537,1.33799 -0.0625,0.25486 -0.50029,0.70087 -0.43776,0.38228 -0.56283,0.44599 -0.12508,0.0637 -0.12508,0.0637 h -0.18761 -0.12507 q -0.0625,0 -0.12507,-0.0637 -0.12508,-0.0637 -0.37522,-0.25486 -0.18761,-0.19113 -0.18761,-0.25486 z m 20.57455,2.29371 q 0,-0.19114 0,-0.63714 0,-0.50971 -0.0625,-1.01942 0,-0.57343 0,-1.01943 0,-0.50971 0,-0.76457 0,-1.78399 0.25014,-3.82284 0.25015,-2.03885 0.75044,-3.95028 0.5003,-1.97513 1.31327,-3.75912 0.87552,-1.84771 2.12625,-3.1857 1.31327,-1.40172 3.00176,-2.23 1.68849,-0.82828 3.87727,-0.82828 1.43834,0 2.18878,0.89199 0.75044,0.82828 1.00059,2.10256 0.31268,1.27429 0.31268,2.676 0.0625,1.40171 0.0625,2.48484 0,2.48485 -0.5003,5.22456 -0.50029,2.67599 -1.62595,4.90598 -1.12566,2.23 -3.12683,3.69542 -1.93864,1.46542 -4.87786,1.46542 -0.87551,0 -1.50088,-0.0637 -0.62536,-0.0637 -1.12566,-0.31857 -0.50029,-0.31857 -1.00058,-0.70085 -0.5003,-0.44601 -1.06313,-1.14686 z m 2.18879,-1.14685 q 0.56283,0.57342 1.31327,0.57342 0.75044,0 1.43834,0 2.37639,0 3.87727,-1.21056 1.50088,-1.27428 2.31386,-3.12199 0.87551,-1.84771 1.18819,-4.01399 0.37522,-2.23 0.37522,-4.14142 0,-0.89199 0,-1.91141 0.0625,-1.08315 -0.18761,-1.97514 -0.18761,-0.95572 -0.75044,-1.52913 -0.56283,-0.63715 -1.68849,-0.63715 0,1.01943 -0.25014,1.52913 -0.25015,0.50972 -0.68791,0.70087 -0.37522,0.19113 -0.93805,0.25485 -0.50029,0 -1.12566,0.19114 -0.56283,0.19115 -1.12566,0.57343 -0.56283,0.38228 -1.00058,1.33799 -1.00059,2.86714 -1.93864,5.54313 -0.87551,2.61227 -0.87551,5.54312 0,0.19114 0,0.50971 0,0.25486 0,0.63714 0.0625,0.38229 0.0625,0.70086 0,0.25486 0,0.446 z m 16.69728,-17.71252 q 0,-0.63714 0.18761,-0.95571 0.18761,-0.38228 0.93805,-0.70085 2.00117,0.12743 3.7522,0.19114 1.81356,0.0637 3.62712,0 1.81357,-0.12743 3.68966,-0.31857 1.8761,-0.19114 4.12742,-0.50971 h 0.25015 q 0.50029,0 1.1882,0.38228 0.6879,0.38229 0.6879,0.95571 0,0.70086 -0.12507,1.40172 -0.12508,0.63714 -0.87552,0.63714 -0.56283,0 -1.06312,-0.31857 -0.43776,-0.31857 -0.93805,-0.31857 h -0.25015 q -1.8761,0.44599 -2.93922,0.63714 -1.06312,0.19113 -1.81356,0.31857 -0.75044,0.0637 -1.31327,0.0637 -0.50029,-0.0637 -1.31327,-0.12742 -0.75044,-0.0637 -1.93864,-0.12744 -1.18819,-0.0637 -3.06429,-0.0637 h -0.50029 q -0.25015,0 -0.62537,0 -0.37522,-0.0637 -0.6879,-0.0637 h -0.43776 q -0.43776,-0.19115 -0.50029,-0.44601 -0.0625,-0.31857 -0.0625,-0.63714 z m 20.01172,18.85937 q 0,-0.19114 0,-0.63714 0,-0.50971 -0.0625,-1.01942 0,-0.57343 0,-1.01943 0,-0.50971 0,-0.76457 0,-1.78399 0.25014,-3.82284 0.25015,-2.03885 0.75044,-3.95028 0.5003,-1.97513 1.31327,-3.75912 0.87552,-1.84771 2.12625,-3.1857 1.31327,-1.40172 3.00176,-2.23 1.68849,-0.82828 3.87727,-0.82828 1.43834,0 2.18878,0.89199 0.75044,0.82828 1.00059,2.10256 0.31268,1.27429 0.31268,2.676 0.0625,1.40171 0.0625,2.48484 0,2.48485 -0.50029,5.22456 -0.5003,2.67599 -1.62596,4.90598 -1.12566,2.23 -3.12683,3.69542 -1.93863,1.46542 -4.87786,1.46542 -0.87551,0 -1.50088,-0.0637 -0.62536,-0.0637 -1.12566,-0.31857 -0.50029,-0.31857 -1.00058,-0.70085 -0.5003,-0.44601 -1.06313,-1.14686 z m 2.18879,-1.14685 q 0.56283,0.57342 1.31327,0.57342 0.75044,0 1.43834,0 2.37639,0 3.87727,-1.21056 1.50088,-1.27428 2.31386,-3.12199 0.87551,-1.84771 1.18819,-4.01399 0.37522,-2.23 0.37522,-4.14142 0,-0.89199 0,-1.91141 0.0625,-1.08315 -0.18761,-1.97514 -0.18761,-0.95572 -0.75044,-1.52913 -0.56283,-0.63715 -1.68849,-0.63715 0,1.01943 -0.25014,1.52913 -0.25015,0.50972 -0.68791,0.70087 -0.37522,0.19113 -0.93804,0.25485 -0.5003,0 -1.12566,0.19114 -0.56283,0.19115 -1.12566,0.57343 -0.56283,0.38228 -1.00059,1.33799 -1.00059,2.86714 -1.93864,5.54313 -0.87551,2.61227 -0.87551,5.54312 0,0.19114 0,0.50971 0,0.25486 0,0.63714 0.0625,0.38229 0.0625,0.70086 0,0.25486 0,0.446 z m 13.13269,18.03108 q 1.12566,-3.50427 1.8761,-6.11655 0.75044,-2.54856 1.1882,-4.77855 0.43775,-2.16629 0.75044,-4.26884 0.31268,-2.10257 0.62536,-4.65114 0.37522,-2.61227 0.87552,-5.9254 0.50029,-3.31314 1.3758,-7.90055 0,-1.4017 -0.18761,-2.22999 -0.12507,-0.82829 -0.62536,-1.01943 -0.43776,-0.25485 -1.31327,0.0637 -0.81298,0.25486 -2.12625,1.01942 h -0.31268 q -0.50029,0 -0.93805,-0.19114 -0.43776,-0.25485 -0.43776,-0.892 0,-0.446 0.0625,-0.63714 0.0625,-0.19114 0.50029,-0.50971 0.93805,-0.63714 2.25132,-1.46542 1.31327,-0.82829 2.50147,-1.08315 1.25073,-0.31857 2.12624,0.31857 0.93805,0.63715 1.1882,2.73971 0.6879,-0.82828 1.43834,-1.72028 0.81298,-0.9557 1.68849,-1.65657 0.87551,-0.76456 1.8761,-1.21056 1.06312,-0.446 2.31386,-0.446 1.93863,0 3.18936,1.27428 1.25074,1.27428 1.93864,3.12199 0.6879,1.84771 0.87551,3.95027 0.25015,2.03886 0.25015,3.56799 0,3.69542 -1.25073,6.62627 -1.25074,2.86713 -3.43952,4.90598 -2.12624,2.03885 -5.128,3.1857 -3.00176,1.08315 -6.50381,1.21057 -0.5003,1.65656 -0.68791,2.42113 -0.12507,0.76457 -0.18761,1.27428 -0.0625,0.57343 -0.12507,1.21057 -0.0625,0.63714 -0.43776,1.91142 -0.31268,1.338 -1.06312,3.69542 -0.75044,2.35742 -2.12625,6.30769 -0.75043,0 -1.3758,-0.70085 -0.62537,-0.70085 -0.62537,-1.40171 z m 7.12918,-18.03108 q -0.0625,0.38228 0.12507,0.63714 0.18761,0.19114 0.43776,0.31857 0.25015,0.12743 0.56283,0.19114 0.31268,0 0.50029,0 1.62595,0 3.43952,-0.76457 1.8761,-0.76457 3.43951,-1.97513 1.62596,-1.21057 2.75162,-2.80342 1.12565,-1.59285 1.31326,-3.37685 0.93805,-2.35742 1.00059,-4.71484 0.12507,-2.42114 -0.37522,-4.39627 -0.43776,-1.97514 -1.37581,-3.31313 -0.93804,-1.338 -2.25131,-1.59285 -1.25074,-0.25486 -2.75162,0.76456 -1.43834,1.01943 -2.93922,3.82285 z m 18.07309,-7.51826 q 0,-0.12743 0,-0.38229 0,-0.25485 0,-0.57343 0.0625,-0.31857 0.0625,-0.57342 0,-0.31857 0,-0.38229 0.0625,-0.19113 0.43775,-0.44599 0.43776,-0.25486 0.62537,-0.19115 0.37522,0.12744 0.6879,0.892 0.31269,0.76457 0.62537,1.84771 0.31268,1.08314 0.6879,2.42113 0.43776,1.27428 1.06312,2.42114 0.68791,1.08314 1.62596,1.97514 1.00058,0.82828 2.37639,1.08313 0.43776,0.0637 0.6879,0 0.25015,-0.12742 0.31269,-0.31857 0.12507,-0.25485 0.12507,-0.50971 0,-0.31857 0,-0.50971 -0.0625,-1.14685 -0.87551,-2.35742 -0.81298,-1.27428 -1.93864,-2.67599 -1.12566,-1.46543 -2.25132,-3.05828 -1.12566,-1.65656 -1.8761,-3.44056 -0.75044,-1.8477 -0.93805,-3.88656 -0.18761,-2.10256 0.75044,-4.45998 0,-0.57343 0.56283,-1.52913 0.62537,-0.95571 1.43834,-1.784 0.87552,-0.892 1.81357,-1.52914 0.93805,-0.63714 1.62595,-0.63714 1.00059,0 1.8761,0.38228 0.93805,0.38229 1.43834,1.27428 0.62537,0.82829 1.43834,2.22999 0.87552,1.338 1.50088,2.676 0.68791,1.338 0.87552,2.42113 0.18761,1.08315 -0.56283,1.27428 -0.87552,0 -1.50088,-0.5097 -0.56283,-0.50972 -0.93805,-1.27429 -0.37522,-0.76457 -0.68791,-1.65657 -0.31268,-0.95571 -0.6879,-1.72028 -0.37522,-0.76456 -0.87551,-1.27428 -0.50029,-0.57343 -1.31327,-0.57343 -1.12566,0 -2.00117,0.70087 -0.81298,0.70085 -1.37581,1.72027 -0.50029,1.01943 -0.75044,2.23 -0.18761,1.14684 -0.18761,2.03884 0,1.59285 0.56283,2.99456 0.62537,1.338 1.50088,2.61229 0.93805,1.21056 2.00117,2.42113 1.12566,1.21056 2.00118,2.48485 0.93804,1.21057 1.56341,2.54856 0.62537,1.33799 0.62537,2.86713 0,0.63714 -0.31269,1.27429 -0.25014,0.57342 -0.75044,1.14684 -0.43775,0.50972 -1.06312,0.82829 -0.62536,0.31857 -1.25073,0.31857 -1.75103,0 -3.31444,-1.08313 -1.56342,-1.08315 -2.81415,-2.73971 -1.1882,-1.65657 -1.93864,-3.50428 -0.6879,-1.91142 -0.6879,-3.50427 z m 46.96502,8.66511 q 0,-0.19114 0,-0.63714 0,-0.50971 -0.0625,-1.01942 0,-0.57343 0,-1.01943 0,-0.50971 0,-0.76457 0,-1.8477 0.31268,-3.56799 0.31269,-1.78399 0.68791,-3.50427 0.43775,-1.78399 0.75044,-3.56799 0.31268,-1.78399 0.31268,-3.6317 -0.75044,0 -1.81356,0.70085 -1.00059,0.70086 -2.12625,1.59286 -1.12566,0.89199 -2.12624,1.84771 -0.93805,0.89199 -1.43835,1.33799 0,0 -0.18761,0 -0.18761,0 -0.31268,0 -1.1882,0 -1.1882,-1.14686 0,-0.76456 0.75044,-1.59284 0.81298,-0.892 1.93864,-1.72029 1.1882,-0.892 2.50147,-1.65656 1.3758,-0.76457 2.50146,-1.40171 1.1882,-0.70086 1.93864,-1.21057 0.81297,-0.50971 0.81297,-0.82828 0.56283,-2.67599 0.5003,-4.45999 -0.0625,-1.78399 -0.5003,-2.86713 -0.37522,-1.08314 -1.12566,-1.46542 -0.6879,-0.44601 -1.50088,-0.38228 -0.75044,0.0637 -1.56341,0.57342 -0.81298,0.50971 -1.37581,1.27428 -0.43775,-0.50971 -0.56283,-0.82828 -0.12507,-0.38228 -0.12507,-0.82829 1.43834,-1.46542 2.81415,-1.8477 1.43834,-0.38229 2.68907,0.0637 1.25074,0.38229 2.25132,1.40171 1.00059,1.01942 1.50088,2.42114 0.56283,1.33799 0.5003,2.93085 0,1.52914 -0.75044,2.99455 0.12507,-0.0637 0.50029,-0.25486 0.37522,-0.19113 0.81297,-0.31857 0.43776,-0.19113 0.81298,-0.31857 0.43776,-0.19113 0.62537,-0.25484 h 0.18761 0.31268 q 0.0625,0 0.12507,0.44599 0.12508,0.38228 0.25015,0.95571 0.18761,0.50972 0.31268,0.95571 0.12508,0.38229 0.12508,0.446 l -4.62771,2.22999 q -0.0625,0.0637 -0.43776,1.40172 -0.31268,1.27428 -0.75044,3.05827 -0.43776,1.72027 -0.87551,3.6317 -0.43776,1.84771 -0.62537,2.99456 -0.12507,0.25486 -0.25015,1.01943 -0.0625,0.70085 -0.12507,1.52914 -0.0625,0.76456 -0.12507,1.52913 -0.0625,0.70086 -0.0625,0.95571 0,0.38229 0.0625,0.892 0.0625,0.50971 0.18761,0.95571 0.18761,0.38228 0.50029,0.70085 0.31268,0.25486 0.81298,0.25486 1.81356,0 3.18936,-0.70085 1.43835,-0.76457 2.50147,-1.65657 1.06312,-0.892 1.8761,-1.65656 0.87551,-0.76458 1.56342,-0.76458 0.12507,0 0.31268,0.0637 0.25015,0 0.25015,0.0637 -0.18761,1.8477 -1.06313,3.1857 -0.81297,1.27428 -2.06371,2.10256 -1.18819,0.82829 -2.81415,1.21057 -1.62595,0.38228 -3.50205,0.38228 -0.56283,0 -1.25073,-0.0637 -0.6879,-0.0637 -1.25073,-0.31857 -0.56283,-0.25486 -1.00059,-0.70085 -0.37522,-0.44601 -0.50029,-1.14686 z m 12.00703,0 q 0,-0.19114 0,-0.63714 0,-0.50971 -0.0625,-1.01942 0,-0.57343 0,-1.01943 0,-0.50971 0,-0.76457 0,-1.78399 0.25014,-3.82284 0.25015,-2.03885 0.75044,-3.95028 0.5003,-1.97513 1.31327,-3.75912 0.87552,-1.84771 2.12625,-3.1857 1.31327,-1.40172 3.00176,-2.23 1.68849,-0.82828 3.87727,-0.82828 1.43834,0 2.18878,0.89199 0.75044,0.82828 1.00059,2.10256 0.31268,1.27429 0.31268,2.676 0.0625,1.40171 0.0625,2.48484 0,2.48485 -0.5003,5.22456 -0.50029,2.67599 -1.62595,4.90598 -1.12566,2.23 -3.12683,3.69542 -1.93864,1.46542 -4.87786,1.46542 -0.87551,0 -1.50088,-0.0637 -0.62536,-0.0637 -1.12566,-0.31857 -0.50029,-0.31857 -1.00058,-0.70085 -0.5003,-0.44601 -1.06313,-1.14686 z m 2.18879,-1.14685 q 0.56283,0.57342 1.31326,0.57342 0.75044,0 1.43835,0 2.37639,0 3.87727,-1.21056 1.50088,-1.27428 2.31386,-3.12199 0.87551,-1.84771 1.18819,-4.01399 0.37522,-2.23 0.37522,-4.14142 0,-0.89199 0,-1.91141 0.0625,-1.08315 -0.18761,-1.97514 -0.18761,-0.95572 -0.75044,-1.52913 -0.56283,-0.63715 -1.68849,-0.63715 0,1.01943 -0.25014,1.52913 -0.25015,0.50972 -0.68791,0.70087 -0.37522,0.19113 -0.93805,0.25485 -0.50029,0 -1.12566,0.19114 -0.56283,0.19115 -1.12566,0.57343 -0.56283,0.38228 -1.00058,1.33799 -1.00059,2.86714 -1.93864,5.54313 -0.87551,2.61227 -0.87551,5.54312 0,0.19114 0,0.50971 0,0.25486 0,0.63714 0.0625,0.38229 0.0625,0.70086 0,0.25486 0,0.446 z m 43.08774,-0.57343 q -1.18819,0 -2.00117,-0.76457 -0.81298,-0.76457 -1.37581,-1.8477 -0.50029,-1.08315 -0.81297,-2.29371 -0.25015,-1.21057 -0.25015,-2.10257 0,-1.97513 0.6879,-4.0777 0.75044,-2.16627 1.93864,-4.07769 1.25073,-1.91143 2.81415,-3.44057 1.62595,-1.59285 3.37698,-2.48485 0.75044,-0.38228 1.31327,-0.38228 0.62536,-0.0637 1.06312,-0.0637 0.43776,-0.0637 0.62537,-0.38229 0.25014,-0.38229 0.25014,-1.40171 v -10.64025 q 0,-0.50971 0.56283,-1.01942 0.56283,-0.57343 1.06313,-0.57343 0.31268,0 0.50029,0.31857 0.25014,0.25486 0.37522,0.63714 0.12507,0.38228 0.18761,0.82829 0.0625,0.44599 0.0625,0.63714 0,7.19968 -0.18761,14.20823 -0.18761,6.94483 -0.18761,14.33566 0.5003,0 1.00059,-0.19113 0.50029,-0.19115 1.06312,-0.44601 0.56283,-0.25485 1.06313,-0.5097 0.56283,-0.25486 1.06312,-0.38229 0,0.0637 0,0.25486 0.0625,0.19114 0.0625,0.31856 0,0.892 -0.62537,1.46543 -0.56283,0.50972 -1.37581,0.95571 -0.75044,0.446 -1.50088,0.892 -0.6879,0.44599 -0.93805,1.14685 -0.0625,0.12743 -0.12507,0.892 -0.0625,0.76457 -0.25014,1.72028 -0.18761,0.95571 -0.56283,1.72028 -0.37522,0.70085 -0.93805,0.70085 -0.87552,0 -1.1882,-0.5097 -0.25015,-0.50972 -0.18761,-1.21057 0.0625,-0.70086 0.18761,-1.338 0.18761,-0.63714 0.18761,-0.892 z m -2.25132,-7.00855 q 0,2.10257 1.31327,3.50428 1.31327,1.33799 3.37698,1.33799 0.43776,0 1.00059,0 0.62536,0 1.25073,-0.0637 0.62537,-0.12743 1.12566,-0.38228 0.50029,-0.25486 0.75044,-0.76458 -0.12507,-1.72027 -0.0625,-3.24941 0.12508,-1.59286 0.25015,-3.122 0.12507,-1.59285 0.25015,-3.12198 0.12507,-1.59285 0.12507,-3.31314 0,-0.76456 -0.31268,-1.21056 -0.25015,-0.446 -1.06313,-0.446 -1.68849,0 -3.18937,1.14686 -1.43834,1.08313 -2.564,2.80341 -1.06312,1.65657 -1.68849,3.568 -0.56283,1.8477 -0.56283,3.31312 z m 19.13622,2.93085 q -0.43776,0.25486 -0.68791,0.12742 -0.25014,-0.12742 -0.37522,-0.38228 -0.0625,-0.25486 -0.12507,-0.57342 0,-0.38229 0,-0.50971 0,-1.27429 0.31268,-1.52914 0.31269,-0.31857 0.81298,-0.38229 0.50029,-0.12742 1.06312,-0.31857 0.56283,-0.19114 1.06312,-1.21057 0.75044,-1.59285 1.31327,-3.31312 0.62537,-1.784 1.50088,-3.31313 0.87552,-1.52914 2.18879,-2.48485 1.3758,-0.95572 3.75219,-0.95572 0.37522,0 0.81298,0.0637 0.50029,0.0637 0.87551,0.25485 0.43776,0.12743 0.68791,0.50971 0.31268,0.31857 0.31268,0.892 0,1.33799 -0.6879,2.42114 -0.62537,1.01942 -1.62596,1.91142 -0.93805,0.82828 -2.0637,1.59285 -1.12566,0.76457 -2.06371,1.46542 -0.93805,0.70086 -1.62596,1.46543 -0.62536,0.76457 -0.62536,1.65656 v 6.11655 q 0,0.70086 0.50029,1.14686 0.56283,0.38228 1.25073,0.63714 0.68791,0.25485 1.43835,0.38229 0.75044,0.12742 1.12566,0.12742 1.50087,0 3.00175,-0.50971 1.50088,-0.57343 2.87669,-1.40171 1.43834,-0.82828 2.68908,-1.78399 1.25073,-1.01943 2.37639,-1.91142 0.37522,-0.31857 0.62536,-0.63714 0.31269,-0.38229 0.56283,-0.70086 0.31269,-0.31857 0.62537,-0.50971 0.37522,-0.25486 0.93805,-0.38229 0,0.0637 0,0.25486 0,0.19114 0,0.31857 0,0.50971 -0.12507,0.89199 -0.0625,0.38228 -0.43776,0.76458 -1.37581,1.59285 -2.93922,2.99455 -1.56342,1.40171 -3.31444,2.48486 -1.75103,1.08313 -3.68967,1.72027 -1.93863,0.63714 -4.12741,0.63714 -2.18879,0 -3.37698,-0.63714 -1.1882,-0.63714 -1.8761,-1.84771 -0.62537,-1.21056 -0.87552,-2.86713 -0.25014,-1.65657 -0.56283,-3.56799 z m 8.06722,-9.87568 q 0,-0.12743 -0.25014,0.0637 -0.18761,0.12742 -0.5003,0.38228 -0.25014,0.25486 -0.37522,0.50971 -0.12507,0.19114 0,0.19114 0.31269,0.0637 0.75044,-0.38228 0.43776,-0.446 0.37522,-0.76457 z m 20.32441,15.67366 q -0.62537,-1.40171 -1.68849,-3.6317 -1.00058,-2.2937 -2.06371,-4.65113 -1.06312,-2.42113 -2.00117,-4.5237 -0.87551,-2.16627 -1.37581,-3.37684 0.0625,-0.25486 0.43776,-0.63714 0.43776,-0.44601 0.6879,-0.50972 0.68791,-0.12742 1.43835,0.892 0.75044,0.95571 1.50088,2.61228 0.75044,1.59285 1.56341,3.56798 0.81298,1.91143 1.50088,3.63171 0.75044,1.65657 1.37581,2.80341 0.62536,1.08315 1.06312,1.08315 0.0625,0 0.12507,0 0.0625,-0.0637 0.18761,-0.0637 0,-0.19114 0.18761,-0.57342 0.18761,-0.44601 0.31269,-0.892 0.18761,-0.446 0.31268,-0.82829 0.18761,-0.38228 0.25015,-0.5097 0.0625,-0.12744 0.37522,-0.76458 0.37522,-0.70085 0.75044,-1.46542 0.37522,-0.76457 0.6879,-1.40171 0.31268,-0.70086 0.37522,-0.82828 0.12507,-0.25486 0.37522,-1.08315 0.31268,-0.82827 0.6879,-1.91142 0.43776,-1.08313 0.87551,-2.2937 0.43776,-1.21056 0.81298,-2.29371 0.37522,-1.08313 0.62537,-1.84771 0.31268,-0.82828 0.43775,-1.14685 0.43776,-2.03885 1.31327,-3.31312 0.93805,-1.33801 1.56342,-1.59286 0.6879,-0.31857 0.6879,0.57342 0.0625,0.892 -1.3758,3.18571 -0.12508,0.50971 -0.56283,1.72028 -0.37522,1.14685 -0.81298,2.48484 -0.43776,1.33801 -0.87551,2.54857 -0.37522,1.14686 -0.5003,1.65656 -0.25014,0.76458 -0.6879,2.22999 -0.37522,1.40172 -0.93805,3.18571 -0.50029,1.72029 -1.12566,3.50427 -0.62536,1.784 -1.3758,3.31314 -0.68791,1.46542 -1.43835,2.42113 -0.75044,0.95571 -1.50088,0.95571 -0.37522,0 -0.75044,-0.25486 -0.31268,-0.25484 -0.62536,-0.57341 -0.25015,-0.31857 -0.5003,-0.70087 -0.18761,-0.44599 -0.31268,-0.70085 z m 17.26011,-18.85937 q 0,-0.63714 0.18761,-0.95571 0.18761,-0.38228 0.93805,-0.70085 2.00118,0.12743 3.7522,0.19114 1.81357,0.0637 3.62713,0 1.81356,-0.12743 3.68966,-0.31857 1.8761,-0.19114 4.12742,-0.50971 h 0.25014 q 0.5003,0 1.1882,0.38228 0.6879,0.38229 0.6879,0.95571 0,0.70086 -0.12507,1.40172 -0.12507,0.63714 -0.87551,0.63714 -0.56283,0 -1.06313,-0.31857 -0.43775,-0.31857 -0.93804,-0.31857 h -0.25015 q -1.8761,0.44599 -2.93922,0.63714 -1.06313,0.19113 -1.81357,0.31857 -0.75044,0.0637 -1.31327,0.0637 -0.50029,-0.0637 -1.31327,-0.12742 -0.75043,-0.0637 -1.93863,-0.12744 -1.1882,-0.0637 -3.0643,-0.0637 h -0.50029 q -0.25015,0 -0.62537,0 -0.37522,-0.0637 -0.6879,-0.0637 h -0.43776 q -0.43775,-0.19115 -0.50029,-0.44601 -0.0625,-0.31857 -0.0625,-0.63714 z m 20.01173,18.85937 q 0,-0.19114 0,-0.63714 0,-0.50971 -0.0625,-1.01942 0,-0.57343 0,-1.01943 0,-0.50971 0,-0.76457 0,-1.78399 0.25015,-3.82284 0.25015,-2.03885 0.75044,-3.95028 0.50029,-1.97513 1.31327,-3.75912 0.87551,-1.84771 2.12624,-3.1857 1.31327,-1.40172 3.00176,-2.23 1.68849,-0.82828 3.87728,-0.82828 1.43834,0 2.18878,0.89199 0.75044,0.82828 1.00058,2.10256 0.31269,1.27429 0.31269,2.676 0.0625,1.40171 0.0625,2.48484 0,2.48485 -0.50029,5.22456 -0.50029,2.67599 -1.62595,4.90598 -1.12566,2.23 -3.12683,3.69542 -1.93864,1.46542 -4.87786,1.46542 -0.87551,0 -1.50088,-0.0637 -0.62537,-0.0637 -1.12566,-0.31857 -0.50029,-0.31857 -1.00059,-0.70085 -0.50029,-0.44601 -1.06312,-1.14686 z m 2.18878,-1.14685 q 0.56283,0.57342 1.31327,0.57342 0.75044,0 1.43834,0 2.3764,0 3.87728,-1.21056 1.50088,-1.27428 2.31385,-3.12199 0.87552,-1.84771 1.1882,-4.01399 0.37522,-2.23 0.37522,-4.14142 0,-0.89199 0,-1.91141 0.0625,-1.08315 -0.18761,-1.97514 -0.18761,-0.95572 -0.75044,-1.52913 -0.56283,-0.63715 -1.68849,-0.63715 0,1.01943 -0.25015,1.52913 -0.25014,0.50972 -0.6879,0.70087 -0.37522,0.19113 -0.93805,0.25485 -0.50029,0 -1.12566,0.19114 -0.56283,0.19115 -1.12566,0.57343 -0.56283,0.38228 -1.00059,1.33799 -1.00058,2.86714 -1.93863,5.54313 -0.87551,2.61227 -0.87551,5.54312 0,0.19114 0,0.50971 0,0.25486 0,0.63714 0.0625,0.38229 0.0625,0.70086 0,0.25486 0,0.446 z m 13.1327,18.03108 q 1.12566,-3.50427 1.8761,-6.11655 0.75044,-2.54856 1.18819,-4.77855 0.43776,-2.16629 0.75044,-4.26884 0.31269,-2.10257 0.62537,-4.65114 0.37522,-2.61227 0.87551,-5.9254 0.5003,-3.31314 1.37581,-7.90055 0,-1.4017 -0.18761,-2.22999 -0.12508,-0.82829 -0.62537,-1.01943 -0.43775,-0.25485 -1.31327,0.0637 -0.81297,0.25486 -2.12624,1.01942 h -0.31269 q -0.50029,0 -0.93805,-0.19114 -0.43775,-0.25485 -0.43775,-0.892 0,-0.446 0.0625,-0.63714 0.0625,-0.19114 0.5003,-0.50971 0.93805,-0.63714 2.25132,-1.46542 1.31327,-0.82829 2.50146,-1.08315 1.25073,-0.31857 2.12625,0.31857 0.93805,0.63715 1.18819,2.73971 0.68791,-0.82828 1.43835,-1.72028 0.81297,-0.9557 1.68849,-1.65657 0.87551,-0.76456 1.8761,-1.21056 1.06312,-0.446 2.31385,-0.446 1.93864,0 3.18937,1.27428 1.25073,1.27428 1.93864,3.12199 0.6879,1.84771 0.87551,3.95027 0.25015,2.03886 0.25015,3.56799 0,3.69542 -1.25074,6.62627 -1.25073,2.86713 -3.43951,4.90598 -2.12625,2.03885 -5.12801,3.1857 -3.00176,1.08315 -6.50381,1.21057 -0.50029,1.65656 -0.6879,2.42113 -0.12507,0.76457 -0.18761,1.27428 -0.0625,0.57343 -0.12507,1.21057 -0.0625,0.63714 -0.43776,1.91142 -0.31268,1.338 -1.06312,3.69542 -0.75044,2.35742 -2.12625,6.30769 -0.75044,0 -1.37581,-0.70085 -0.62536,-0.70085 -0.62536,-1.40171 z m 7.12917,-18.03108 q -0.0625,0.38228 0.12508,0.63714 0.18761,0.19114 0.43775,0.31857 0.25015,0.12743 0.56283,0.19114 0.31269,0 0.5003,0 1.62595,0 3.43951,-0.76457 1.8761,-0.76457 3.43952,-1.97513 1.62595,-1.21057 2.75161,-2.80342 1.12566,-1.59285 1.31327,-3.37685 0.93805,-2.35742 1.00059,-4.71484 0.12507,-2.42114 -0.37522,-4.39627 -0.43776,-1.97514 -1.37581,-3.31313 -0.93805,-1.338 -2.25132,-1.59285 -1.25073,-0.25486 -2.75161,0.76456 -1.43834,1.01943 -2.93922,3.82285 z m 18.07309,-7.51826 q 0,-0.12743 0,-0.38229 0,-0.25485 0,-0.57343 0.0625,-0.31857 0.0625,-0.57342 0,-0.31857 0,-0.38229 0.0625,-0.19113 0.43776,-0.44599 0.43775,-0.25486 0.62536,-0.19115 0.37522,0.12744 0.68791,0.892 0.31268,0.76457 0.62536,1.84771 0.31269,1.08314 0.68791,2.42113 0.43775,1.27428 1.06312,2.42114 0.6879,1.08314 1.62595,1.97514 1.00059,0.82828 2.37639,1.08313 0.43776,0.0637 0.68791,0 0.25014,-0.12742 0.31268,-0.31857 0.12507,-0.25485 0.12507,-0.50971 0,-0.31857 0,-0.50971 -0.0625,-1.14685 -0.87551,-2.35742 -0.81298,-1.27428 -1.93863,-2.67599 -1.12566,-1.46543 -2.25132,-3.05828 -1.12566,-1.65656 -1.8761,-3.44056 -0.75044,-1.8477 -0.93805,-3.88656 -0.18761,-2.10256 0.75044,-4.45998 0,-0.57343 0.56283,-1.52913 0.62536,-0.95571 1.43834,-1.784 0.87551,-0.892 1.81356,-1.52914 0.93805,-0.63714 1.62595,-0.63714 1.00059,0 1.8761,0.38228 0.93805,0.38229 1.43835,1.27428 0.62536,0.82829 1.43834,2.22999 0.87551,1.338 1.50088,2.676 0.6879,1.338 0.87551,2.42113 0.18761,1.08315 -0.56283,1.27428 -0.87551,0 -1.50088,-0.5097 -0.56283,-0.50972 -0.93805,-1.27429 -0.37522,-0.76457 -0.6879,-1.65657 -0.31268,-0.95571 -0.6879,-1.72028 -0.37522,-0.76456 -0.87552,-1.27428 -0.50029,-0.57343 -1.31327,-0.57343 -1.12566,0 -2.00117,0.70087 -0.81297,0.70085 -1.3758,1.72027 -0.5003,1.01943 -0.75044,2.23 -0.18761,1.14684 -0.18761,2.03884 0,1.59285 0.56283,2.99456 0.62536,1.338 1.50088,2.61229 0.93804,1.21056 2.00117,2.42113 1.12566,1.21056 2.00117,2.48485 0.93805,1.21057 1.56342,2.54856 0.62536,1.33799 0.62536,2.86713 0,0.63714 -0.31268,1.27429 -0.25015,0.57342 -0.75044,1.14684 -0.43776,0.50972 -1.06312,0.82829 -0.62537,0.31857 -1.25074,0.31857 -1.75102,0 -3.31444,-1.08313 -1.56341,-1.08315 -2.81415,-2.73971 -1.18819,-1.65657 -1.93863,-3.50428 -0.68791,-1.91142 -0.68791,-3.50427 z m 54.59449,3.05828 q -0.93805,1.14684 -2.18878,2.42113 -1.1882,1.27428 -2.62654,2.35742 -1.3758,1.08314 -2.93922,1.8477 -1.50088,0.70087 -3.12683,0.70087 -3.31444,0 -3.31444,-3.24943 0,-1.33799 1.06312,-3.50428 1.12566,-2.22998 2.87668,-4.65112 1.75103,-2.42114 3.87728,-4.65113 2.12624,-2.2937 4.25249,-3.75912 2.12624,-1.52914 3.87727,-1.91143 1.81356,-0.38228 2.93922,1.08314 0,1.72029 -0.25015,3.44056 -0.25014,1.72028 -0.50029,3.44057 -0.25015,1.65656 -0.50029,3.31312 -0.25015,1.65657 -0.25015,3.37684 0,0.3823 0.0625,1.21057 0.12507,0.76458 0.31268,1.59286 0.25015,0.76457 0.62537,1.40171 0.37522,0.57342 1.00058,0.57342 1.50088,0 2.43893,-0.38228 1.00059,-0.38228 1.68849,-0.892 0.75044,-0.57342 1.25074,-1.27428 0.56283,-0.70086 1.12566,-1.40171 0.62536,-0.70085 1.3758,-1.33799 0.75044,-0.63714 1.93864,-1.01943 0,0 0,0.19114 0,0.19115 0,0.31857 0,1.59285 -0.93805,3.18571 -0.93805,1.52914 -2.37639,2.73971 -1.43835,1.21056 -3.25191,1.97513 -1.75103,0.70085 -3.43952,0.70085 -1.43834,0 -2.31385,-0.82827 -0.87551,-0.82829 -1.43834,-1.97515 -0.5003,-1.14685 -0.75044,-2.48484 -0.25015,-1.40172 -0.5003,-2.54856 z m 1.12566,-8.34655 q 0.62537,-2.10257 0.43776,-2.86713 -0.12507,-0.76458 -0.87551,-0.57343 -0.75044,0.12742 -1.93864,1.08314 -1.1882,0.892 -2.564,2.22999 -1.37581,1.27428 -2.75161,2.86713 -1.37581,1.59285 -2.56401,3.05828 -1.18819,1.40171 -1.93863,2.54857 -0.75044,1.14684 -0.93805,1.65656 -0.37522,1.46542 -0.12508,2.22999 0.31269,0.76457 0.87552,1.08314 0.62536,0.25486 1.31327,0.0637 0.75044,-0.19114 1.25073,-0.57342 1.06312,-0.95571 2.68908,-2.54856 1.62595,-1.65658 3.12683,-3.50428 1.56341,-1.84771 2.68907,-3.6317 1.12566,-1.84771 1.31327,-3.12199 z m 17.13504,11.65967 q 0.12508,-0.50971 0.37522,-1.65656 0.25015,-1.21057 0.5003,-2.67599 0.31268,-1.46543 0.56283,-3.12199 0.31268,-1.65656 0.56283,-3.12199 0.31268,-1.46543 0.50029,-2.67599 0.18761,-1.21057 0.25014,-1.784 0.0625,-0.25486 0,-0.76456 -0.0625,-0.50972 -0.12507,-1.14686 -0.0625,-0.63714 -0.12507,-1.14685 -0.0625,-0.50971 -0.0625,-0.76457 -0.18761,0 -0.62536,-0.12743 -0.43776,-0.12743 -0.93805,-0.19114 -0.43776,-0.12743 -0.81298,-0.19114 -0.37522,-0.12743 -0.56283,-0.12743 -1.50088,0.57343 -2.25132,1.46542 -0.6879,0.82828 -1.31327,1.65657 -0.56283,0.82829 -1.37581,1.46543 -0.81297,0.57342 -2.37639,0.57342 -0.56283,0 -0.81297,-0.446 -0.25015,-0.44599 -0.25015,-1.01942 v -0.25486 q 1.37581,-1.59285 2.62654,-2.73971 1.18819,-1.14685 2.564,-1.91141 1.37581,-0.82829 3.00176,-1.21057 1.62595,-0.38229 3.7522,-0.38229 0.93805,0 1.3758,0.38229 0.5003,0.31857 0.75044,0.892 0.25015,0.5097 0.25015,1.21056 0.0625,0.70085 0.0625,1.52914 0,1.72027 -0.37522,3.44056 -0.31269,1.65656 -0.75044,3.37684 -0.37522,1.65656 -0.75044,3.37685 -0.37522,1.65656 -0.37522,3.44056 v 0.25485 q 0.18761,-0.50971 0.81297,-1.65656 0.62537,-1.21057 1.31327,-2.54857 0.68791,-1.33799 1.31327,-2.48485 0.68791,-1.21056 0.93805,-1.65656 0.0625,-0.0637 0.43776,-0.50971 0.37522,-0.50972 0.87551,-1.14686 0.56283,-0.63714 1.06313,-1.21057 0.56283,-0.63714 0.93805,-1.01942 0.37521,-0.50971 0.87551,-1.08314 0.56283,-0.57342 1.12566,-1.08314 0.62536,-0.50971 1.25073,-0.82828 0.6879,-0.38228 1.37581,-0.38228 0.56283,0 0.81297,0.44599 0.31269,0.446 0.43776,1.08314 0.12507,0.63714 0.12507,1.338 0,0.63714 0,1.08314 0,1.91142 -0.43775,3.82284 -0.43776,1.91143 -0.93805,3.82285 -0.5003,1.84771 -1.00059,3.75913 -0.43776,1.91141 -0.43776,3.82284 0,0.82828 0.25015,1.40171 0.25015,0.57343 1.12566,0.57343 1.12566,0 2.06371,-0.63714 0.93805,-0.63714 1.75103,-1.338 0.87551,-0.76457 1.68848,-1.40171 0.87552,-0.63714 1.93864,-0.63714 v 1.21057 q 0,0.0637 -0.31268,0.38228 -0.31269,0.31857 -0.75044,0.76457 -0.43776,0.446 -0.93805,0.892 -0.43776,0.446 -0.75044,0.76457 -0.5003,0.446 -1.12566,0.95571 -0.62537,0.50971 -1.31327,0.95571 -0.62537,0.38229 -1.37581,0.70086 -0.75044,0.25486 -1.43834,0.25486 -0.93805,0 -1.56342,-0.50972 -0.56283,-0.57343 -0.87551,-1.33799 -0.31268,-0.82829 -0.43776,-1.72029 -0.12507,-0.89199 -0.12507,-1.59285 0,-1.91143 0.31268,-3.75913 0.37522,-1.91142 0.75044,-3.69542 0.37522,-1.84771 0.68791,-3.69541 0.31268,-1.84771 0.31268,-3.75913 h -0.37522 q -0.0625,0 -0.43776,0.38228 -0.37522,0.38228 -0.93805,0.892 -0.50029,0.50972 -1.00058,1.08314 -0.50029,0.57343 -0.87551,0.95571 -0.31269,0.38229 -0.68791,0.95571 -0.37522,0.50972 -0.75044,1.14686 -0.37522,0.63714 -0.75044,1.27428 -0.31268,0.57343 -0.56283,1.08313 -0.18761,0.44601 -0.62536,1.338 -0.43776,0.892 -1.00059,2.03885 -0.50029,1.14685 -1.12566,2.42113 -0.56283,1.27428 -1.12566,2.42114 -0.50029,1.14685 -0.93805,2.03885 -0.43775,0.892 -0.62536,1.33799 -0.0625,0.25486 -0.5003,0.70087 -0.43775,0.38228 -0.56283,0.44599 -0.12507,0.0637 -0.12507,0.0637 H 782.20507 782.08 q -0.0625,0 -0.12508,-0.0637 -0.12507,-0.0637 -0.37522,-0.25486 -0.18761,-0.19113 -0.18761,-0.25486 z m 24.95212,0.57343 q -1.18819,0 -2.00117,-0.76457 -0.81298,-0.76457 -1.37581,-1.8477 -0.50029,-1.08315 -0.81297,-2.29371 -0.25015,-1.21057 -0.25015,-2.10257 0,-1.97513 0.6879,-4.0777 0.75044,-2.16627 1.93864,-4.07769 1.25073,-1.91143 2.81415,-3.44057 1.62595,-1.59285 3.37698,-2.48485 0.75044,-0.38228 1.31327,-0.38228 0.62536,-0.0637 1.06312,-0.0637 0.43776,-0.0637 0.62537,-0.38229 0.25014,-0.38229 0.25014,-1.40171 v -10.64025 q 0,-0.50971 0.56283,-1.01942 0.56283,-0.57343 1.06313,-0.57343 0.31268,0 0.50029,0.31857 0.25015,0.25486 0.37522,0.63714 0.12507,0.38228 0.18761,0.82829 0.0625,0.44599 0.0625,0.63714 0,7.19968 -0.18761,14.20823 -0.18761,6.94483 -0.18761,14.33566 0.50029,0 1.00058,-0.19113 0.5003,-0.19115 1.06312,-0.44601 0.56283,-0.25485 1.06313,-0.5097 0.56283,-0.25486 1.06312,-0.38229 0,0.0637 0,0.25486 0.0625,0.19114 0.0625,0.31856 0,0.892 -0.62537,1.46543 -0.56283,0.50972 -1.37581,0.95571 -0.75043,0.446 -1.50087,0.892 -0.68791,0.44599 -0.93805,1.14685 -0.0625,0.12743 -0.12508,0.892 -0.0625,0.76457 -0.25014,1.72028 -0.18761,0.95571 -0.56283,1.72028 -0.37522,0.70085 -0.93805,0.70085 -0.87552,0 -1.1882,-0.5097 -0.25015,-0.50972 -0.18761,-1.21057 0.0625,-0.70086 0.18761,-1.338 0.18761,-0.63714 0.18761,-0.892 z m -2.25132,-7.00855 q 0,2.10257 1.31327,3.50428 1.31327,1.33799 3.37698,1.33799 0.43776,0 1.00059,0 0.62536,0 1.25073,-0.0637 0.62537,-0.12743 1.12566,-0.38228 0.50029,-0.25486 0.75044,-0.76458 -0.12507,-1.72027 -0.0625,-3.24941 0.12508,-1.59286 0.25015,-3.122 0.12507,-1.59285 0.25015,-3.12198 0.12507,-1.59285 0.12507,-3.31314 0,-0.76456 -0.31268,-1.21056 -0.25015,-0.446 -1.06313,-0.446 -1.68849,0 -3.18936,1.14686 -1.43835,1.08313 -2.56401,2.80341 -1.06312,1.65657 -1.68849,3.568 -0.56283,1.8477 -0.56283,3.31312 z m 43.83819,10.38539 q -0.50029,-0.5097 -0.56283,-0.95571 -0.0625,-0.44599 -0.0625,-1.01942 0,-0.19114 0,-0.50971 0.0625,-0.31857 0.0625,-0.31857 0.56283,-3.12199 1.06312,-5.8617 0.56283,-2.7397 0.93805,-5.35197 0.37522,-2.676 0.56283,-5.4157 0.18761,-2.73971 0.18761,-5.92542 0,-0.38228 0,-1.4017 0,-1.08314 -0.0625,-2.29371 0,-1.27428 0,-2.2937 0,-1.08315 0,-1.46543 -0.0625,-0.57343 -0.56283,-0.57343 -0.43776,-0.0637 -0.75044,-0.0637 -0.93805,0 -1.62596,0.12742 -0.62536,0.0637 -1.12566,0.31857 -0.50029,0.19115 -0.87551,0.57343 -0.43776,0.38229 -0.93805,0.892 -0.18761,0 -0.56283,0.0637 -0.43775,0 -0.56283,0 -0.50029,0 -1.06312,-0.0637 -0.62537,-0.12742 -0.62537,-0.82829 0,-0.0637 0.0625,-0.12742 0,-0.12742 0,-0.12742 0.93805,-1.21057 1.81356,-2.03886 0.81298,-0.82828 1.75103,-1.27428 0.93805,-0.446 2.12624,-0.63714 1.1882,-0.19114 2.75162,-0.19114 1.06312,0 1.62595,0.50971 0.62537,0.50971 0.87551,1.338 0.31268,0.76457 0.37522,1.78399 0.0625,0.95571 0.0625,1.91142 0,0.446 0,1.40171 0,0.892 0,2.03885 0,1.14685 -0.0625,2.42113 0,1.27429 -0.0625,2.42114 0,1.14685 -0.0625,2.10256 0,0.892 0,1.33801 h 0.75044 q 0.18761,-0.25486 0.81297,-0.892 0.62537,-0.63714 1.37581,-1.338 0.81298,-0.70086 1.62595,-1.21057 0.87552,-0.50971 1.62596,-0.50971 1.00058,0 1.8761,0.82828 0.93804,0.76457 1.62595,2.10256 0.75044,1.27428 1.31327,2.86714 0.62536,1.59285 1.00058,3.12199 0.37522,1.52914 0.56283,2.80342 0.25015,1.27428 0.25015,2.03885 0,2.10257 -1.12566,3.95027 -1.12566,1.84771 -2.87669,3.24942 -1.68848,1.40171 -3.81473,2.23 -2.06371,0.82827 -3.93981,0.82827 -0.81298,0 -1.50088,-0.0637 -0.62536,0 -1.31327,0 -0.62536,-0.0637 -1.3758,-0.19115 -0.68791,-0.12742 -1.56342,-0.31857 z m 10.31855,-20.57964 q -1.8761,1.65656 -3.31445,3.95028 -1.43834,2.22998 -2.43893,4.77855 -1.00058,2.54856 -1.50087,5.22456 -0.43776,2.67598 -0.43776,5.16084 1.75103,0 3.87727,-0.44601 2.12625,-0.44599 3.93981,-1.4017 1.8761,-1.01943 3.12683,-2.61228 1.25073,-1.65656 1.25073,-4.0777 0,-1.27429 -0.25014,-2.80343 -0.25015,-1.59285 -0.81298,-3.05827 -0.50029,-1.52914 -1.3758,-2.80342 -0.81298,-1.27428 -2.06371,-1.91142 z m 9.88079,13.1251 q -0.43776,0.25486 -0.68791,0.12742 -0.25014,-0.12742 -0.37522,-0.38228 -0.0625,-0.25486 -0.12507,-0.57342 0,-0.38229 0,-0.50971 0,-1.27429 0.31268,-1.52914 0.31269,-0.31857 0.81298,-0.38229 0.50029,-0.12742 1.06312,-0.31857 0.56283,-0.19114 1.06312,-1.21057 0.75044,-1.59285 1.31327,-3.31312 0.62537,-1.784 1.50088,-3.31313 0.87552,-1.52914 2.18879,-2.48485 1.3758,-0.95572 3.75219,-0.95572 0.37522,0 0.81298,0.0637 0.50029,0.0637 0.87551,0.25485 0.43776,0.12743 0.68791,0.50971 0.31268,0.31857 0.31268,0.892 0,1.33799 -0.6879,2.42114 -0.62537,1.01942 -1.62596,1.91142 -0.93805,0.82828 -2.0637,1.59285 -1.12566,0.76457 -2.06371,1.46542 -0.93805,0.70086 -1.62596,1.46543 -0.62536,0.76457 -0.62536,1.65656 v 6.11655 q 0,0.70086 0.50029,1.14686 0.56283,0.38228 1.25073,0.63714 0.68791,0.25485 1.43835,0.38229 0.75044,0.12742 1.12566,0.12742 1.50087,0 3.00175,-0.50971 1.50088,-0.57343 2.87669,-1.40171 1.43834,-0.82828 2.68908,-1.78399 1.25073,-1.01943 2.37639,-1.91142 0.37522,-0.31857 0.62536,-0.63714 0.31269,-0.38229 0.56283,-0.70086 0.31269,-0.31857 0.62537,-0.50971 0.37522,-0.25486 0.93805,-0.38229 0,0.0637 0,0.25486 0,0.19114 0,0.31857 0,0.50971 -0.12507,0.89199 -0.0625,0.38228 -0.43776,0.76458 -1.37581,1.59285 -2.93922,2.99455 -1.56342,1.40171 -3.31444,2.48486 -1.75103,1.08313 -3.68967,1.72027 -1.93863,0.63714 -4.12741,0.63714 -2.18879,0 -3.37698,-0.63714 -1.1882,-0.63714 -1.8761,-1.84771 -0.62537,-1.21056 -0.87552,-2.86713 -0.25014,-1.65657 -0.56283,-3.56799 z m 8.06722,-9.87568 q 0,-0.12743 -0.25014,0.0637 -0.18761,0.12742 -0.5003,0.38228 -0.25014,0.25486 -0.37522,0.50971 -0.12507,0.19114 0,0.19114 0.31269,0.0637 0.75044,-0.38228 0.43776,-0.446 0.37522,-0.76457 z m 9.25543,46.76613 q -0.37522,-2.42114 -0.62537,-5.09713 -0.25015,-2.67599 -0.43776,-6.18026 0,-0.57343 0.0625,-1.91142 0,-1.27429 0.12507,-2.93085 0.12508,-1.59285 0.37522,-3.37685 0.25015,-1.72028 0.62537,-3.31313 0.31268,-1.52914 0.81298,-2.73971 0.50029,-1.14685 1.25073,-1.65656 v 0.50971 q 0,1.91143 -0.25015,3.75914 -0.31268,1.8477 -0.56283,3.69541 -0.31268,1.91142 -0.56283,3.82284 -0.31268,1.91143 -0.31268,3.82285 0,0.76456 0.12507,2.16628 0.0625,1.46542 0.25015,3.1857 0.18761,1.72028 0.56283,3.50428 0.37522,1.8477 1.00058,3.31313 0.62537,1.46541 1.50088,2.35741 0.87552,0.95571 2.06371,0.95571 1.62596,0 3.25191,-1.08313 1.68849,-1.08315 3.18937,-2.86714 1.56341,-1.72028 2.87668,-3.95026 1.31327,-2.16629 2.43893,-4.39628 1.12566,-2.22999 1.8761,-4.26884 0.75044,-1.97514 1.12566,-3.44056 0.37522,-2.10257 0.75044,-4.45999 0.37522,-2.2937 0.6879,-4.77855 0.37522,-2.42114 0.56283,-4.84227 0.25015,-2.42114 0.25015,-4.84227 0,-0.0637 0,-0.38228 0,-0.31857 -0.0625,-0.63714 0,-0.3823 0,-0.70087 0,-0.31857 0,-0.44599 -0.87551,0.95571 -1.8761,2.16628 -0.93805,1.14685 -2.06371,2.16628 -1.12565,1.01942 -2.43892,1.72028 -1.25074,0.70085 -2.75162,0.70085 -1.18819,0 -2.06371,-0.76456 -0.81297,-0.76458 -1.3758,-1.84772 -0.5003,-1.14685 -0.81298,-2.42113 -0.25014,-1.27429 -0.25014,-2.29371 -0.0625,-0.57342 -0.12508,-2.03885 -0.0625,-1.52914 -0.18761,-3.1857 -0.0625,-1.72028 -0.18761,-3.1857 -0.0625,-1.52914 -0.0625,-2.16629 l -0.56283,-0.57341 q -0.43776,0.25484 -1.12566,0.76456 -0.68791,0.50972 -1.50088,0.95571 -0.75044,0.446 -1.50088,0.82829 -0.75044,0.31857 -1.31327,0.31857 -0.75044,0 -1.1882,-0.50972 -0.50029,-0.57343 -0.50029,-1.21057 0,-0.31857 0.62536,-0.892 0.56283,-0.57341 1.50088,-1.14684 0.87552,-0.63714 2.00118,-1.27429 1.18819,-0.63714 2.25132,-1.14685 1.06312,-0.50971 1.93863,-0.82828 0.87551,-0.38229 1.25073,-0.38229 0.25015,0 0.81298,0.0637 0.56283,0.0637 0.56283,0.57342 v 15.03652 q 0,0.38229 0.12507,1.14686 0.12508,0.70085 0.37522,1.46542 0.25015,0.76457 0.68791,1.338 0.43775,0.50971 1.00058,0.50971 0.31269,0 0.81298,-0.19114 0.50029,-0.19115 0.93805,-0.446 0.50029,-0.25486 0.87551,-0.50971 0.37522,-0.31857 0.62537,-0.57343 2.12624,-1.91142 3.87727,-4.26884 1.81356,-2.35743 2.68908,-5.16085 0.0625,-0.19113 0.18761,-0.82828 0.18761,-0.70085 0.31268,-1.46542 0.18761,-0.82828 0.37522,-1.52913 0.18761,-0.76458 0.18761,-1.14686 0.0625,-0.446 0.0625,-1.01942 0.0625,-0.57343 0.18761,-1.08315 0.12507,-0.57342 0.43775,-0.95571 0.31269,-0.38228 1.00059,-0.38228 0.93805,0 1.00058,0.57343 0.12508,0.57342 0.12508,1.33799 0,0.82829 -0.12508,1.65656 -0.12507,0.82829 -0.31268,1.65658 -0.12507,0.76456 -0.18761,1.59285 -0.0625,0.76456 0.0625,1.59284 -0.6879,11.97825 -2.93922,21.40793 -2.18879,9.42969 -5.25308,15.86481 -3.00176,6.49883 -6.37874,9.81196 -3.31444,3.31314 -6.25366,2.99457 -1.06313,0 -2.12625,-0.50972 -1.00059,-0.44599 -1.8761,-1.27428 -0.87551,-0.82828 -1.50088,-1.84771 -0.6879,-0.95571 -1.00058,-1.97513 z m 30.01758,-31.09247 q 0,-0.19114 0,-0.63714 0,-0.50971 -0.0625,-1.01942 0,-0.57343 0,-1.01943 0,-0.50971 0,-0.76457 0,-1.78399 0.25014,-3.82284 0.25015,-2.03885 0.75044,-3.95028 0.5003,-1.97513 1.31327,-3.75912 0.87552,-1.84771 2.12625,-3.1857 1.31327,-1.40172 3.00176,-2.23 1.68849,-0.82828 3.87727,-0.82828 1.43834,0 2.18878,0.89199 0.75044,0.82828 1.00059,2.10256 0.31268,1.27429 0.31268,2.676 0.0625,1.40171 0.0625,2.48484 0,2.48485 -0.5003,5.22456 -0.50029,2.67599 -1.62595,4.90598 -1.12566,2.23 -3.12683,3.69542 -1.93864,1.46542 -4.87786,1.46542 -0.87551,0 -1.50088,-0.0637 -0.62536,-0.0637 -1.12566,-0.31857 -0.50029,-0.31857 -1.00058,-0.70085 -0.5003,-0.44601 -1.06313,-1.14686 z m 2.18879,-1.14685 q 0.56283,0.57342 1.31327,0.57342 0.75044,0 1.43834,0 2.37639,0 3.87727,-1.21056 1.50088,-1.27428 2.31386,-3.12199 0.87551,-1.84771 1.18819,-4.01399 0.37522,-2.23 0.37522,-4.14142 0,-0.89199 0,-1.91141 0.0625,-1.08315 -0.18761,-1.97514 -0.18761,-0.95572 -0.75044,-1.52913 -0.56283,-0.63715 -1.68849,-0.63715 0,1.01943 -0.25014,1.52913 -0.25015,0.50972 -0.68791,0.70087 -0.37522,0.19113 -0.93805,0.25485 -0.50029,0 -1.12566,0.19114 -0.56283,0.19115 -1.12566,0.57343 -0.56282,0.38228 -1.00058,1.33799 -1.00059,2.86714 -1.93864,5.54313 -0.87551,2.61227 -0.87551,5.54312 0,0.19114 0,0.50971 0,0.25486 0,0.63714 0.0625,0.38229 0.0625,0.70086 0,0.25486 0,0.446 z m 19.07367,-1.14686 q 0.12508,-0.50971 0.37522,-1.65656 0.25015,-1.21057 0.5003,-2.67599 0.31268,-1.46543 0.56283,-3.12199 0.31268,-1.65656 0.56282,-3.12199 0.31269,-1.46543 0.5003,-2.67599 0.18761,-1.21057 0.25014,-1.784 0.0625,-0.25486 0,-0.76456 -0.0625,-0.50972 -0.12507,-1.14686 -0.0625,-0.63714 -0.12507,-1.14685 -0.0625,-0.50971 -0.0625,-0.76457 -0.18761,0 -0.62537,-0.12743 -0.43775,-0.12743 -0.93804,-0.19114 -0.43776,-0.12743 -0.81298,-0.19114 -0.37522,-0.12743 -0.56283,-0.12743 -1.50088,0.57343 -2.25132,1.46542 -0.6879,0.82828 -1.31327,1.65657 -0.56283,0.82829 -1.37581,1.46543 -0.81297,0.57342 -2.37639,0.57342 -0.56283,0 -0.81297,-0.446 -0.25015,-0.44599 -0.25015,-1.01942 v -0.25486 q 1.37581,-1.59285 2.62654,-2.73971 1.18819,-1.14685 2.564,-1.91141 1.37581,-0.82829 3.00176,-1.21057 1.62595,-0.38229 3.7522,-0.38229 0.93805,0 1.3758,0.38229 0.5003,0.31857 0.75044,0.892 0.25015,0.5097 0.25015,1.21056 0.0625,0.70085 0.0625,1.52914 0,1.72027 -0.37522,3.44056 -0.31269,1.65656 -0.75044,3.37684 -0.37522,1.65656 -0.75044,3.37685 -0.37522,1.65656 -0.37522,3.44056 v 0.25485 q 0.18761,-0.50971 0.81297,-1.65656 0.62537,-1.21057 1.31327,-2.54857 0.68791,-1.33799 1.31327,-2.48485 0.68791,-1.21056 0.93805,-1.65656 0.0625,-0.0637 0.43776,-0.50971 0.37522,-0.50972 0.87551,-1.14686 0.56283,-0.63714 1.06313,-1.21057 0.56282,-0.63714 0.93804,-1.01942 0.37522,-0.50971 0.87552,-1.08314 0.56283,-0.57342 1.12566,-1.08314 0.62536,-0.50971 1.25073,-0.82828 0.6879,-0.38228 1.37581,-0.38228 0.56283,0 0.81297,0.44599 0.31269,0.446 0.43776,1.08314 0.12507,0.63714 0.12507,1.338 0,0.63714 0,1.08314 0,1.91142 -0.43775,3.82284 -0.43776,1.91143 -0.93805,3.82285 -0.5003,1.84771 -1.00059,3.75913 -0.43776,1.91141 -0.43776,3.82284 0,0.82828 0.25015,1.40171 0.25015,0.57343 1.12566,0.57343 1.12566,0 2.06371,-0.63714 0.93805,-0.63714 1.75102,-1.338 0.87552,-0.76457 1.68849,-1.40171 0.87552,-0.63714 1.93864,-0.63714 v 1.21057 q 0,0.0637 -0.31268,0.38228 -0.31269,0.31857 -0.75044,0.76457 -0.43776,0.446 -0.93805,0.892 -0.43776,0.446 -0.75044,0.76457 -0.5003,0.446 -1.12566,0.95571 -0.62537,0.50971 -1.31327,0.95571 -0.62537,0.38229 -1.37581,0.70086 -0.75044,0.25486 -1.43834,0.25486 -0.93805,0 -1.56342,-0.50972 -0.56283,-0.57343 -0.87551,-1.33799 -0.31268,-0.82829 -0.43776,-1.72029 -0.12507,-0.89199 -0.12507,-1.59285 0,-1.91143 0.31268,-3.75913 0.37522,-1.91142 0.75044,-3.69542 0.37522,-1.84771 0.68791,-3.69541 0.31268,-1.84771 0.31268,-3.75913 h -0.37522 q -0.0625,0 -0.43776,0.38228 -0.37522,0.38228 -0.93805,0.892 -0.50029,0.50972 -1.00058,1.08314 -0.5003,0.57343 -0.87552,0.95571 -0.31268,0.38229 -0.6879,0.95571 -0.37522,0.50972 -0.75044,1.14686 -0.37522,0.63714 -0.75044,1.27428 -0.31268,0.57343 -0.56283,1.08313 -0.18761,0.44601 -0.62536,1.338 -0.43776,0.892 -1.00059,2.03885 -0.50029,1.14685 -1.12566,2.42113 -0.56283,1.27428 -1.12566,2.42114 -0.50029,1.14685 -0.93805,2.03885 -0.43776,0.892 -0.62537,1.33799 -0.0625,0.25486 -0.50029,0.70087 -0.43775,0.38228 -0.56283,0.44599 -0.12507,0.0637 -0.12507,0.0637 h -0.18761 -0.12507 q -0.0625,0 -0.12508,-0.0637 -0.12507,-0.0637 -0.37522,-0.25486 -0.18761,-0.19113 -0.18761,-0.25486 z m 24.95212,0.57343 q -1.18819,0 -2.00117,-0.76457 -0.81298,-0.76457 -1.37581,-1.8477 -0.50029,-1.08315 -0.81297,-2.29371 -0.25015,-1.21057 -0.25015,-2.10257 0,-1.97513 0.6879,-4.0777 0.75044,-2.16627 1.93864,-4.07769 1.25073,-1.91143 2.81415,-3.44057 1.62595,-1.59285 3.37698,-2.48485 0.75044,-0.38228 1.31327,-0.38228 0.62536,-0.0637 1.06312,-0.0637 0.43776,-0.0637 0.62537,-0.38229 0.25014,-0.38229 0.25014,-1.40171 v -10.64025 q 0,-0.50971 0.56283,-1.01942 0.56283,-0.57343 1.06313,-0.57343 0.31268,0 0.50029,0.31857 0.25015,0.25486 0.37522,0.63714 0.12507,0.38228 0.18761,0.82829 0.0625,0.44599 0.0625,0.63714 0,7.19968 -0.18761,14.20823 -0.18761,6.94483 -0.18761,14.33566 0.50029,0 1.00058,-0.19113 0.50029,-0.19115 1.06312,-0.44601 0.56283,-0.25485 1.06313,-0.5097 0.56283,-0.25486 1.06312,-0.38229 0,0.0637 0,0.25486 0.0625,0.19114 0.0625,0.31856 0,0.892 -0.62537,1.46543 -0.56283,0.50972 -1.37581,0.95571 -0.75044,0.446 -1.50087,0.892 -0.68791,0.44599 -0.93805,1.14685 -0.0625,0.12743 -0.12508,0.892 -0.0625,0.76457 -0.25014,1.72028 -0.18761,0.95571 -0.56283,1.72028 -0.37522,0.70085 -0.93805,0.70085 -0.87552,0 -1.1882,-0.5097 -0.25015,-0.50972 -0.18761,-1.21057 0.0625,-0.70086 0.18761,-1.338 0.18761,-0.63714 0.18761,-0.892 z m -2.25132,-7.00855 q 0,2.10257 1.31327,3.50428 1.31327,1.33799 3.37698,1.33799 0.43776,0 1.00059,0 0.62536,0 1.25073,-0.0637 0.62537,-0.12743 1.12566,-0.38228 0.50029,-0.25486 0.75044,-0.76458 -0.12507,-1.72027 -0.0625,-3.24941 0.12508,-1.59286 0.25015,-3.122 0.12507,-1.59285 0.25015,-3.12198 0.12507,-1.59285 0.12507,-3.31314 0,-0.76456 -0.31268,-1.21056 -0.25015,-0.446 -1.06313,-0.446 -1.68849,0 -3.18937,1.14686 -1.43834,1.08313 -2.564,2.80341 -1.06312,1.65657 -1.68849,3.568 -0.56283,1.8477 -0.56283,3.31312 z"
       id="text2"
       aria-label="a journey from no-ops to dev-ops and beyond"
       inkscape:label="subheading" />
  </g>
</svg>
